G04 (created by PCBNEW (2013-07-07 BZR 4022)-stable) date 3/11/2014 10:59:26 PM*
%MOIN*%
G04 Gerber Fmt 3.4, Leading zero omitted, Abs format*
%FSLAX34Y34*%
G01*
G70*
G90*
G04 APERTURE LIST*
%ADD10C,0.00590551*%
%ADD11C,0.2*%
%ADD12C,0.23622*%
%ADD13C,0.05*%
%ADD14C,0.09*%
%ADD15R,0.08X0.12*%
%ADD16O,0.08X0.12*%
%ADD17C,0.09*%
G04 APERTURE END LIST*
G54D10*
G54D11*
X91000Y-51000D03*
X81000Y-51000D03*
G54D12*
X78500Y-58500D03*
X93500Y-58500D03*
X86000Y-46000D03*
G54D13*
X85000Y-58000D03*
X84000Y-58000D03*
X83000Y-58000D03*
X87000Y-58000D03*
X88000Y-58000D03*
X89000Y-58000D03*
G54D14*
X83000Y-59000D03*
X84000Y-59000D03*
X85000Y-59000D03*
X87000Y-59000D03*
X88000Y-59000D03*
X89000Y-59000D03*
G54D15*
X85000Y-52700D03*
G54D16*
X86000Y-52700D03*
X87000Y-52700D03*
G54D15*
X87000Y-49300D03*
G54D16*
X86000Y-49300D03*
X85000Y-49300D03*
G54D17*
X83000Y-59000D02*
X83000Y-58000D01*
X83000Y-58000D02*
X83000Y-57000D01*
X83000Y-57000D02*
X83000Y-56000D01*
X83000Y-56000D02*
X85000Y-54000D01*
X85000Y-54000D02*
X85000Y-52500D01*
X84000Y-59000D02*
X84000Y-58000D01*
X84000Y-58000D02*
X84000Y-57000D01*
X84000Y-57000D02*
X86000Y-55000D01*
X86000Y-55000D02*
X86000Y-52500D01*
X85000Y-59000D02*
X85000Y-58000D01*
X85000Y-58000D02*
X87000Y-56000D01*
X87000Y-56000D02*
X87000Y-52500D01*
M02*
