G04 (created by PCBNEW (2013-07-07 BZR 4022)-stable) date 3/25/2014 11:58:55 PM*
%MOIN*%
G04 Gerber Fmt 3.4, Leading zero omitted, Abs format*
%FSLAX34Y34*%
G01*
G70*
G90*
G04 APERTURE LIST*
%ADD10C,0.00590551*%
%ADD11C,0.16*%
%ADD12C,0.12*%
%ADD13R,0.1185X0.079*%
%ADD14O,0.079X0.1185*%
%ADD15O,0.1185X0.079*%
%ADD16O,0.069X0.069*%
%ADD17C,0.23622*%
%ADD18C,0.02*%
%ADD19C,0.08*%
%ADD20C,0.1*%
%ADD21C,0.01*%
G04 APERTURE END LIST*
G54D10*
G54D11*
X81000Y-51000D03*
X91000Y-51000D03*
G54D12*
X83000Y-58000D03*
X85000Y-58000D03*
X81000Y-58000D03*
X87000Y-58000D03*
X89000Y-58000D03*
X91000Y-58000D03*
G54D13*
X84802Y-52500D03*
G54D14*
X86000Y-52697D03*
G54D15*
X87197Y-52500D03*
G54D13*
X84047Y-52500D03*
G54D15*
X87952Y-52500D03*
G54D13*
X87197Y-49500D03*
G54D14*
X86000Y-49302D03*
G54D15*
X84802Y-49500D03*
G54D13*
X87952Y-49500D03*
G54D15*
X84047Y-49500D03*
G54D16*
X82000Y-59000D03*
X83000Y-59000D03*
X84000Y-59000D03*
X88000Y-59000D03*
X89000Y-59000D03*
X90000Y-59000D03*
G54D17*
X86000Y-46000D03*
X78500Y-58500D03*
X93500Y-58500D03*
G54D16*
X84000Y-47000D03*
G54D18*
X84000Y-47000D02*
X84000Y-47750D01*
X86000Y-46000D02*
X85000Y-46000D01*
X85000Y-46000D02*
X84000Y-47000D01*
G54D19*
X83000Y-58000D02*
X85000Y-56000D01*
X86000Y-53250D02*
X86000Y-52500D01*
G54D20*
X86000Y-55000D02*
X86000Y-53250D01*
X85000Y-56000D02*
X86000Y-55000D01*
X85000Y-58000D02*
X87750Y-55250D01*
X87750Y-52900D02*
X88150Y-52500D01*
X87750Y-55250D02*
X87750Y-52900D01*
X81000Y-58000D02*
X82250Y-56750D01*
X83850Y-55650D02*
X83850Y-52500D01*
X82750Y-56750D02*
X83850Y-55650D01*
X82250Y-56750D02*
X82750Y-56750D01*
G54D19*
X81000Y-58000D02*
X82000Y-59000D01*
X83000Y-58000D02*
X83000Y-59000D01*
X85000Y-58000D02*
X84000Y-59000D01*
G54D10*
G36*
X82193Y-58274D02*
X81989Y-58070D01*
X82150Y-57910D01*
X82149Y-58168D01*
X82193Y-58274D01*
X82193Y-58274D01*
G37*
G54D21*
X82193Y-58274D02*
X81989Y-58070D01*
X82150Y-57910D01*
X82149Y-58168D01*
X82193Y-58274D01*
G54D10*
G36*
X82533Y-59450D02*
X82466Y-59450D01*
X82499Y-59399D01*
X82533Y-59450D01*
X82533Y-59450D01*
G37*
G54D21*
X82533Y-59450D02*
X82466Y-59450D01*
X82499Y-59399D01*
X82533Y-59450D01*
G54D10*
G36*
X83533Y-59450D02*
X83466Y-59450D01*
X83499Y-59399D01*
X83533Y-59450D01*
X83533Y-59450D01*
G37*
G54D21*
X83533Y-59450D02*
X83466Y-59450D01*
X83499Y-59399D01*
X83533Y-59450D01*
G54D10*
G36*
X84193Y-57725D02*
X84150Y-57830D01*
X84150Y-57930D01*
X83806Y-58274D01*
X83849Y-58169D01*
X83849Y-58069D01*
X84193Y-57725D01*
X84193Y-57725D01*
G37*
G54D21*
X84193Y-57725D02*
X84150Y-57830D01*
X84150Y-57930D01*
X83806Y-58274D01*
X83849Y-58169D01*
X83849Y-58069D01*
X84193Y-57725D01*
G54D10*
G36*
X85236Y-56702D02*
X84759Y-57179D01*
X84725Y-57193D01*
X85211Y-56707D01*
X85236Y-56702D01*
X85236Y-56702D01*
G37*
G54D21*
X85236Y-56702D02*
X84759Y-57179D01*
X84725Y-57193D01*
X85211Y-56707D01*
X85236Y-56702D01*
G54D10*
G36*
X85270Y-53145D02*
X85250Y-53250D01*
X85250Y-54689D01*
X84600Y-55339D01*
X84600Y-53145D01*
X84689Y-53145D01*
X85270Y-53145D01*
X85270Y-53145D01*
G37*
G54D21*
X85270Y-53145D02*
X85250Y-53250D01*
X85250Y-54689D01*
X84600Y-55339D01*
X84600Y-53145D01*
X84689Y-53145D01*
X85270Y-53145D01*
G54D10*
G36*
X87000Y-54939D02*
X86702Y-55236D01*
X86749Y-55000D01*
X86750Y-55000D01*
X86750Y-53250D01*
X86716Y-53082D01*
X86736Y-53095D01*
X86983Y-53145D01*
X87000Y-53145D01*
X87000Y-54939D01*
X87000Y-54939D01*
G37*
G54D21*
X87000Y-54939D02*
X86702Y-55236D01*
X86749Y-55000D01*
X86750Y-55000D01*
X86750Y-53250D01*
X86716Y-53082D01*
X86736Y-53095D01*
X86983Y-53145D01*
X87000Y-53145D01*
X87000Y-54939D01*
G54D10*
G36*
X87611Y-59450D02*
X84469Y-59450D01*
X85069Y-58850D01*
X85168Y-58850D01*
X85480Y-58721D01*
X85720Y-58482D01*
X85820Y-58239D01*
X86150Y-57910D01*
X86149Y-58168D01*
X86278Y-58480D01*
X86517Y-58720D01*
X86830Y-58849D01*
X87168Y-58850D01*
X87469Y-58725D01*
X87438Y-58772D01*
X87393Y-59000D01*
X87438Y-59227D01*
X87567Y-59420D01*
X87611Y-59450D01*
X87611Y-59450D01*
G37*
G54D21*
X87611Y-59450D02*
X84469Y-59450D01*
X85069Y-58850D01*
X85168Y-58850D01*
X85480Y-58721D01*
X85720Y-58482D01*
X85820Y-58239D01*
X86150Y-57910D01*
X86149Y-58168D01*
X86278Y-58480D01*
X86517Y-58720D01*
X86830Y-58849D01*
X87168Y-58850D01*
X87469Y-58725D01*
X87438Y-58772D01*
X87393Y-59000D01*
X87438Y-59227D01*
X87567Y-59420D01*
X87611Y-59450D01*
G54D10*
G36*
X88611Y-59450D02*
X88388Y-59450D01*
X88432Y-59420D01*
X88500Y-59319D01*
X88567Y-59420D01*
X88611Y-59450D01*
X88611Y-59450D01*
G37*
G54D21*
X88611Y-59450D02*
X88388Y-59450D01*
X88432Y-59420D01*
X88500Y-59319D01*
X88567Y-59420D01*
X88611Y-59450D01*
G54D10*
G36*
X89611Y-59450D02*
X89388Y-59450D01*
X89432Y-59420D01*
X89500Y-59319D01*
X89567Y-59420D01*
X89611Y-59450D01*
X89611Y-59450D01*
G37*
G54D21*
X89611Y-59450D02*
X89388Y-59450D01*
X89432Y-59420D01*
X89500Y-59319D01*
X89567Y-59420D01*
X89611Y-59450D01*
G54D10*
G36*
X94450Y-57426D02*
X94311Y-57287D01*
X93785Y-57069D01*
X93216Y-57068D01*
X92690Y-57286D01*
X92287Y-57688D01*
X92069Y-58214D01*
X92068Y-58783D01*
X92286Y-59309D01*
X92426Y-59450D01*
X92050Y-59450D01*
X92050Y-50792D01*
X91890Y-50406D01*
X91595Y-50110D01*
X91209Y-49950D01*
X90792Y-49949D01*
X90406Y-50109D01*
X90110Y-50404D01*
X89950Y-50790D01*
X89949Y-51207D01*
X90109Y-51594D01*
X90404Y-51889D01*
X90790Y-52049D01*
X91207Y-52050D01*
X91594Y-51890D01*
X91889Y-51595D01*
X92049Y-51209D01*
X92050Y-50792D01*
X92050Y-59450D01*
X90388Y-59450D01*
X90432Y-59420D01*
X90561Y-59227D01*
X90606Y-59000D01*
X90561Y-58772D01*
X90529Y-58725D01*
X90830Y-58849D01*
X91168Y-58850D01*
X91480Y-58721D01*
X91720Y-58482D01*
X91849Y-58169D01*
X91850Y-57831D01*
X91721Y-57519D01*
X91482Y-57279D01*
X91169Y-57150D01*
X90831Y-57149D01*
X90519Y-57278D01*
X90279Y-57517D01*
X90150Y-57830D01*
X90149Y-58168D01*
X90276Y-58475D01*
X90239Y-58450D01*
X90011Y-58405D01*
X89988Y-58405D01*
X89760Y-58450D01*
X89722Y-58475D01*
X89849Y-58169D01*
X89850Y-57831D01*
X89721Y-57519D01*
X89482Y-57279D01*
X89169Y-57150D01*
X88831Y-57149D01*
X88519Y-57278D01*
X88279Y-57517D01*
X88150Y-57830D01*
X88149Y-58168D01*
X88276Y-58475D01*
X88239Y-58450D01*
X88011Y-58405D01*
X87988Y-58405D01*
X87760Y-58450D01*
X87722Y-58475D01*
X87849Y-58169D01*
X87850Y-57831D01*
X87721Y-57519D01*
X87482Y-57279D01*
X87169Y-57150D01*
X86910Y-57149D01*
X88280Y-55780D01*
X88280Y-55780D01*
X88388Y-55617D01*
X88442Y-55537D01*
X88442Y-55537D01*
X88499Y-55250D01*
X88500Y-55250D01*
X88500Y-53210D01*
X88680Y-53030D01*
X88842Y-52787D01*
X88899Y-52500D01*
X88842Y-52212D01*
X88795Y-52141D01*
X88795Y-49845D01*
X88795Y-49055D01*
X88757Y-48963D01*
X88686Y-48893D01*
X88594Y-48855D01*
X88495Y-48854D01*
X87740Y-48854D01*
X87310Y-48854D01*
X86598Y-48854D01*
X86595Y-48841D01*
X86456Y-48632D01*
X86246Y-48492D01*
X86000Y-48443D01*
X85753Y-48492D01*
X85543Y-48632D01*
X85404Y-48841D01*
X85376Y-48979D01*
X85263Y-48904D01*
X85016Y-48855D01*
X84588Y-48855D01*
X84425Y-48887D01*
X84261Y-48855D01*
X83833Y-48855D01*
X83586Y-48904D01*
X83377Y-49043D01*
X83237Y-49253D01*
X83188Y-49500D01*
X83237Y-49746D01*
X83377Y-49956D01*
X83586Y-50095D01*
X83833Y-50145D01*
X84261Y-50145D01*
X84425Y-50112D01*
X84588Y-50145D01*
X85016Y-50145D01*
X85263Y-50095D01*
X85472Y-49956D01*
X85502Y-49910D01*
X85543Y-49972D01*
X85753Y-50112D01*
X86000Y-50161D01*
X86246Y-50112D01*
X86385Y-50019D01*
X86392Y-50036D01*
X86463Y-50106D01*
X86555Y-50144D01*
X86654Y-50145D01*
X87409Y-50145D01*
X87839Y-50145D01*
X88594Y-50145D01*
X88686Y-50107D01*
X88756Y-50036D01*
X88794Y-49944D01*
X88795Y-49845D01*
X88795Y-52141D01*
X88680Y-51969D01*
X88437Y-51807D01*
X88149Y-51750D01*
X87862Y-51807D01*
X87791Y-51855D01*
X87738Y-51855D01*
X87575Y-51887D01*
X87411Y-51855D01*
X86983Y-51855D01*
X86736Y-51904D01*
X86527Y-52043D01*
X86497Y-52089D01*
X86456Y-52027D01*
X86246Y-51887D01*
X86000Y-51838D01*
X85753Y-51887D01*
X85614Y-51980D01*
X85607Y-51963D01*
X85536Y-51893D01*
X85444Y-51855D01*
X85345Y-51854D01*
X84590Y-51854D01*
X84208Y-51854D01*
X84137Y-51807D01*
X83850Y-51750D01*
X83562Y-51807D01*
X83491Y-51854D01*
X83405Y-51854D01*
X83313Y-51892D01*
X83243Y-51963D01*
X83205Y-52055D01*
X83204Y-52141D01*
X83157Y-52212D01*
X83100Y-52500D01*
X83100Y-55339D01*
X82439Y-56000D01*
X82250Y-56000D01*
X82050Y-56039D01*
X82050Y-50792D01*
X81890Y-50406D01*
X81595Y-50110D01*
X81209Y-49950D01*
X80792Y-49949D01*
X80406Y-50109D01*
X80110Y-50404D01*
X79950Y-50790D01*
X79949Y-51207D01*
X80109Y-51594D01*
X80404Y-51889D01*
X80790Y-52049D01*
X81207Y-52050D01*
X81594Y-51890D01*
X81889Y-51595D01*
X82049Y-51209D01*
X82050Y-50792D01*
X82050Y-56039D01*
X81962Y-56057D01*
X81719Y-56219D01*
X80759Y-57179D01*
X80519Y-57278D01*
X80279Y-57517D01*
X80150Y-57830D01*
X80149Y-58168D01*
X80278Y-58480D01*
X80517Y-58720D01*
X80830Y-58849D01*
X80930Y-58849D01*
X81530Y-59450D01*
X79573Y-59450D01*
X79712Y-59311D01*
X79930Y-58785D01*
X79931Y-58216D01*
X79713Y-57690D01*
X79311Y-57287D01*
X78785Y-57069D01*
X78216Y-57068D01*
X77690Y-57286D01*
X77550Y-57426D01*
X77550Y-45050D01*
X84926Y-45050D01*
X84787Y-45188D01*
X84569Y-45714D01*
X84568Y-45936D01*
X84085Y-46419D01*
X84011Y-46405D01*
X83988Y-46405D01*
X83760Y-46450D01*
X83567Y-46579D01*
X83438Y-46772D01*
X83393Y-47000D01*
X83438Y-47227D01*
X83567Y-47420D01*
X83760Y-47549D01*
X83988Y-47595D01*
X84011Y-47595D01*
X84239Y-47549D01*
X84432Y-47420D01*
X84561Y-47227D01*
X84606Y-47000D01*
X84588Y-46906D01*
X84756Y-46738D01*
X84786Y-46809D01*
X85188Y-47212D01*
X85714Y-47430D01*
X86283Y-47431D01*
X86809Y-47213D01*
X87212Y-46811D01*
X87430Y-46285D01*
X87431Y-45716D01*
X87213Y-45190D01*
X87073Y-45050D01*
X94450Y-45050D01*
X94450Y-57426D01*
X94450Y-57426D01*
G37*
G54D21*
X94450Y-57426D02*
X94311Y-57287D01*
X93785Y-57069D01*
X93216Y-57068D01*
X92690Y-57286D01*
X92287Y-57688D01*
X92069Y-58214D01*
X92068Y-58783D01*
X92286Y-59309D01*
X92426Y-59450D01*
X92050Y-59450D01*
X92050Y-50792D01*
X91890Y-50406D01*
X91595Y-50110D01*
X91209Y-49950D01*
X90792Y-49949D01*
X90406Y-50109D01*
X90110Y-50404D01*
X89950Y-50790D01*
X89949Y-51207D01*
X90109Y-51594D01*
X90404Y-51889D01*
X90790Y-52049D01*
X91207Y-52050D01*
X91594Y-51890D01*
X91889Y-51595D01*
X92049Y-51209D01*
X92050Y-50792D01*
X92050Y-59450D01*
X90388Y-59450D01*
X90432Y-59420D01*
X90561Y-59227D01*
X90606Y-59000D01*
X90561Y-58772D01*
X90529Y-58725D01*
X90830Y-58849D01*
X91168Y-58850D01*
X91480Y-58721D01*
X91720Y-58482D01*
X91849Y-58169D01*
X91850Y-57831D01*
X91721Y-57519D01*
X91482Y-57279D01*
X91169Y-57150D01*
X90831Y-57149D01*
X90519Y-57278D01*
X90279Y-57517D01*
X90150Y-57830D01*
X90149Y-58168D01*
X90276Y-58475D01*
X90239Y-58450D01*
X90011Y-58405D01*
X89988Y-58405D01*
X89760Y-58450D01*
X89722Y-58475D01*
X89849Y-58169D01*
X89850Y-57831D01*
X89721Y-57519D01*
X89482Y-57279D01*
X89169Y-57150D01*
X88831Y-57149D01*
X88519Y-57278D01*
X88279Y-57517D01*
X88150Y-57830D01*
X88149Y-58168D01*
X88276Y-58475D01*
X88239Y-58450D01*
X88011Y-58405D01*
X87988Y-58405D01*
X87760Y-58450D01*
X87722Y-58475D01*
X87849Y-58169D01*
X87850Y-57831D01*
X87721Y-57519D01*
X87482Y-57279D01*
X87169Y-57150D01*
X86910Y-57149D01*
X88280Y-55780D01*
X88280Y-55780D01*
X88388Y-55617D01*
X88442Y-55537D01*
X88442Y-55537D01*
X88499Y-55250D01*
X88500Y-55250D01*
X88500Y-53210D01*
X88680Y-53030D01*
X88842Y-52787D01*
X88899Y-52500D01*
X88842Y-52212D01*
X88795Y-52141D01*
X88795Y-49845D01*
X88795Y-49055D01*
X88757Y-48963D01*
X88686Y-48893D01*
X88594Y-48855D01*
X88495Y-48854D01*
X87740Y-48854D01*
X87310Y-48854D01*
X86598Y-48854D01*
X86595Y-48841D01*
X86456Y-48632D01*
X86246Y-48492D01*
X86000Y-48443D01*
X85753Y-48492D01*
X85543Y-48632D01*
X85404Y-48841D01*
X85376Y-48979D01*
X85263Y-48904D01*
X85016Y-48855D01*
X84588Y-48855D01*
X84425Y-48887D01*
X84261Y-48855D01*
X83833Y-48855D01*
X83586Y-48904D01*
X83377Y-49043D01*
X83237Y-49253D01*
X83188Y-49500D01*
X83237Y-49746D01*
X83377Y-49956D01*
X83586Y-50095D01*
X83833Y-50145D01*
X84261Y-50145D01*
X84425Y-50112D01*
X84588Y-50145D01*
X85016Y-50145D01*
X85263Y-50095D01*
X85472Y-49956D01*
X85502Y-49910D01*
X85543Y-49972D01*
X85753Y-50112D01*
X86000Y-50161D01*
X86246Y-50112D01*
X86385Y-50019D01*
X86392Y-50036D01*
X86463Y-50106D01*
X86555Y-50144D01*
X86654Y-50145D01*
X87409Y-50145D01*
X87839Y-50145D01*
X88594Y-50145D01*
X88686Y-50107D01*
X88756Y-50036D01*
X88794Y-49944D01*
X88795Y-49845D01*
X88795Y-52141D01*
X88680Y-51969D01*
X88437Y-51807D01*
X88149Y-51750D01*
X87862Y-51807D01*
X87791Y-51855D01*
X87738Y-51855D01*
X87575Y-51887D01*
X87411Y-51855D01*
X86983Y-51855D01*
X86736Y-51904D01*
X86527Y-52043D01*
X86497Y-52089D01*
X86456Y-52027D01*
X86246Y-51887D01*
X86000Y-51838D01*
X85753Y-51887D01*
X85614Y-51980D01*
X85607Y-51963D01*
X85536Y-51893D01*
X85444Y-51855D01*
X85345Y-51854D01*
X84590Y-51854D01*
X84208Y-51854D01*
X84137Y-51807D01*
X83850Y-51750D01*
X83562Y-51807D01*
X83491Y-51854D01*
X83405Y-51854D01*
X83313Y-51892D01*
X83243Y-51963D01*
X83205Y-52055D01*
X83204Y-52141D01*
X83157Y-52212D01*
X83100Y-52500D01*
X83100Y-55339D01*
X82439Y-56000D01*
X82250Y-56000D01*
X82050Y-56039D01*
X82050Y-50792D01*
X81890Y-50406D01*
X81595Y-50110D01*
X81209Y-49950D01*
X80792Y-49949D01*
X80406Y-50109D01*
X80110Y-50404D01*
X79950Y-50790D01*
X79949Y-51207D01*
X80109Y-51594D01*
X80404Y-51889D01*
X80790Y-52049D01*
X81207Y-52050D01*
X81594Y-51890D01*
X81889Y-51595D01*
X82049Y-51209D01*
X82050Y-50792D01*
X82050Y-56039D01*
X81962Y-56057D01*
X81719Y-56219D01*
X80759Y-57179D01*
X80519Y-57278D01*
X80279Y-57517D01*
X80150Y-57830D01*
X80149Y-58168D01*
X80278Y-58480D01*
X80517Y-58720D01*
X80830Y-58849D01*
X80930Y-58849D01*
X81530Y-59450D01*
X79573Y-59450D01*
X79712Y-59311D01*
X79930Y-58785D01*
X79931Y-58216D01*
X79713Y-57690D01*
X79311Y-57287D01*
X78785Y-57069D01*
X78216Y-57068D01*
X77690Y-57286D01*
X77550Y-57426D01*
X77550Y-45050D01*
X84926Y-45050D01*
X84787Y-45188D01*
X84569Y-45714D01*
X84568Y-45936D01*
X84085Y-46419D01*
X84011Y-46405D01*
X83988Y-46405D01*
X83760Y-46450D01*
X83567Y-46579D01*
X83438Y-46772D01*
X83393Y-47000D01*
X83438Y-47227D01*
X83567Y-47420D01*
X83760Y-47549D01*
X83988Y-47595D01*
X84011Y-47595D01*
X84239Y-47549D01*
X84432Y-47420D01*
X84561Y-47227D01*
X84606Y-47000D01*
X84588Y-46906D01*
X84756Y-46738D01*
X84786Y-46809D01*
X85188Y-47212D01*
X85714Y-47430D01*
X86283Y-47431D01*
X86809Y-47213D01*
X87212Y-46811D01*
X87430Y-46285D01*
X87431Y-45716D01*
X87213Y-45190D01*
X87073Y-45050D01*
X94450Y-45050D01*
X94450Y-57426D01*
M02*
