M48
;DRILL file {Pcbnew (2013-07-07 BZR 4022)-stable} date 3/11/2014 10:59:31 PM
;FORMAT={-:-/ absolute / inch / decimal}
FMAT,2
INCH,TZ
T1C0.025
T2C0.050
T3C0.107
T4C0.126
%
G90
G05
M72
T1
X8.3Y-5.8
X8.4Y-5.8
X8.5Y-5.8
X8.7Y-5.8
X8.8Y-5.8
X8.9Y-5.8
T2
X8.3Y-5.9
X8.4Y-5.9
X8.5Y-4.95
X8.5Y-5.25
X8.5Y-5.9
X8.6Y-4.95
X8.6Y-5.25
X8.7Y-4.95
X8.7Y-5.25
X8.7Y-5.9
X8.8Y-5.9
X8.9Y-5.9
T3
X8.1Y-5.1
X9.1Y-5.1
T4
X7.85Y-5.85
X8.6Y-4.6
X9.35Y-5.85
T0
M30
