G04 (created by PCBNEW (2013-07-07 BZR 4022)-stable) date 3/26/2014 12:19:48 AM*
%MOIN*%
G04 Gerber Fmt 3.4, Leading zero omitted, Abs format*
%FSLAX34Y34*%
G01*
G70*
G90*
G04 APERTURE LIST*
%ADD10C,0.00590551*%
%ADD11C,0.16*%
%ADD12C,0.12*%
%ADD13R,0.1185X0.079*%
%ADD14O,0.079X0.1185*%
%ADD15O,0.1185X0.079*%
%ADD16O,0.069X0.069*%
%ADD17C,0.23622*%
%ADD18C,0.02*%
%ADD19C,0.08*%
%ADD20C,0.1*%
%ADD21C,0.15*%
%ADD22C,0.01*%
G04 APERTURE END LIST*
G54D10*
G54D11*
X81000Y-51000D03*
X91000Y-51000D03*
G54D12*
X83000Y-58000D03*
X85000Y-58000D03*
X81000Y-58000D03*
X87000Y-58000D03*
X89000Y-58000D03*
X91000Y-58000D03*
G54D13*
X84802Y-52500D03*
G54D14*
X86000Y-52697D03*
G54D15*
X87197Y-52500D03*
G54D13*
X84047Y-52500D03*
G54D15*
X87952Y-52500D03*
G54D13*
X87197Y-49500D03*
G54D14*
X86000Y-49302D03*
G54D15*
X84802Y-49500D03*
G54D13*
X87952Y-49500D03*
G54D15*
X84047Y-49500D03*
G54D16*
X82000Y-59000D03*
X83000Y-59000D03*
X84000Y-59000D03*
X88000Y-59000D03*
X89000Y-59000D03*
X90000Y-59000D03*
G54D17*
X86000Y-46000D03*
X78500Y-58500D03*
X93500Y-58500D03*
G54D16*
X84000Y-47000D03*
G54D18*
X84000Y-47000D02*
X84000Y-47750D01*
X86000Y-46000D02*
X85000Y-46000D01*
X85000Y-46000D02*
X84000Y-47000D01*
G54D19*
X86000Y-49500D02*
X86000Y-50500D01*
G54D20*
X86750Y-51250D02*
X86000Y-50500D01*
G54D21*
X89000Y-56000D02*
X89000Y-58000D01*
G54D20*
X89500Y-52000D02*
X88750Y-51250D01*
X89500Y-53250D02*
X89500Y-52000D01*
X89250Y-53500D02*
X89500Y-53250D01*
G54D21*
X89250Y-55750D02*
X89250Y-53500D01*
X89000Y-56000D02*
X89250Y-55750D01*
G54D20*
X88750Y-51250D02*
X86750Y-51250D01*
G54D21*
X90250Y-49000D02*
X88650Y-49000D01*
X91000Y-53750D02*
X93000Y-51750D01*
X93000Y-51750D02*
X93000Y-50250D01*
X93000Y-50250D02*
X91750Y-49000D01*
X91750Y-49000D02*
X90250Y-49000D01*
X91000Y-58000D02*
X91000Y-53750D01*
X88650Y-49000D02*
X88150Y-49500D01*
G54D19*
X87000Y-58000D02*
X85750Y-56750D01*
X84250Y-50250D02*
X85000Y-49500D01*
X84000Y-50250D02*
X84250Y-50250D01*
G54D21*
X83250Y-51000D02*
X84000Y-50250D01*
G54D20*
X82250Y-52000D02*
X83250Y-51000D01*
X82250Y-52250D02*
X82250Y-52000D01*
X82250Y-52500D02*
X82250Y-52250D01*
G54D21*
X82250Y-53250D02*
X82250Y-52500D01*
X85250Y-56250D02*
X82250Y-53250D01*
G54D20*
X85750Y-56750D02*
X85250Y-56250D01*
G54D19*
X90000Y-59000D02*
X91000Y-58000D01*
X88000Y-59000D02*
X87000Y-58000D01*
X89000Y-59000D02*
X89000Y-58000D01*
G54D10*
G36*
X82611Y-59450D02*
X82388Y-59450D01*
X82432Y-59420D01*
X82500Y-59319D01*
X82567Y-59420D01*
X82611Y-59450D01*
X82611Y-59450D01*
G37*
G54D22*
X82611Y-59450D02*
X82388Y-59450D01*
X82432Y-59420D01*
X82500Y-59319D01*
X82567Y-59420D01*
X82611Y-59450D01*
G54D10*
G36*
X83204Y-52105D02*
X83204Y-52154D01*
X83204Y-52273D01*
X83177Y-52133D01*
X83204Y-52105D01*
X83204Y-52105D01*
G37*
G54D22*
X83204Y-52105D02*
X83204Y-52154D01*
X83204Y-52273D01*
X83177Y-52133D01*
X83204Y-52105D01*
G54D10*
G36*
X83611Y-59450D02*
X83388Y-59450D01*
X83432Y-59420D01*
X83500Y-59319D01*
X83567Y-59420D01*
X83611Y-59450D01*
X83611Y-59450D01*
G37*
G54D22*
X83611Y-59450D02*
X83388Y-59450D01*
X83432Y-59420D01*
X83500Y-59319D01*
X83567Y-59420D01*
X83611Y-59450D01*
G54D10*
G36*
X86629Y-51975D02*
X86527Y-52043D01*
X86497Y-52089D01*
X86456Y-52027D01*
X86246Y-51887D01*
X86000Y-51838D01*
X85753Y-51887D01*
X85614Y-51980D01*
X85607Y-51963D01*
X85536Y-51893D01*
X85444Y-51855D01*
X85345Y-51854D01*
X84590Y-51854D01*
X84160Y-51854D01*
X83735Y-51854D01*
X83957Y-51707D01*
X84707Y-50957D01*
X84923Y-50632D01*
X84957Y-50461D01*
X85350Y-50069D01*
X85350Y-50148D01*
X85307Y-50212D01*
X85250Y-50500D01*
X85307Y-50787D01*
X85469Y-51030D01*
X86219Y-51780D01*
X86219Y-51780D01*
X86382Y-51888D01*
X86462Y-51942D01*
X86462Y-51942D01*
X86629Y-51975D01*
X86629Y-51975D01*
G37*
G54D22*
X86629Y-51975D02*
X86527Y-52043D01*
X86497Y-52089D01*
X86456Y-52027D01*
X86246Y-51887D01*
X86000Y-51838D01*
X85753Y-51887D01*
X85614Y-51980D01*
X85607Y-51963D01*
X85536Y-51893D01*
X85444Y-51855D01*
X85345Y-51854D01*
X84590Y-51854D01*
X84160Y-51854D01*
X83735Y-51854D01*
X83957Y-51707D01*
X84707Y-50957D01*
X84923Y-50632D01*
X84957Y-50461D01*
X85350Y-50069D01*
X85350Y-50148D01*
X85307Y-50212D01*
X85250Y-50500D01*
X85307Y-50787D01*
X85469Y-51030D01*
X86219Y-51780D01*
X86219Y-51780D01*
X86382Y-51888D01*
X86462Y-51942D01*
X86462Y-51942D01*
X86629Y-51975D01*
G54D10*
G36*
X87530Y-59450D02*
X84388Y-59450D01*
X84432Y-59420D01*
X84561Y-59227D01*
X84606Y-59000D01*
X84561Y-58772D01*
X84529Y-58725D01*
X84830Y-58849D01*
X85168Y-58850D01*
X85480Y-58721D01*
X85720Y-58482D01*
X85849Y-58169D01*
X85850Y-57831D01*
X85806Y-57725D01*
X86149Y-58069D01*
X86149Y-58168D01*
X86278Y-58480D01*
X86517Y-58720D01*
X86830Y-58849D01*
X86930Y-58849D01*
X87530Y-59450D01*
X87530Y-59450D01*
G37*
G54D22*
X87530Y-59450D02*
X84388Y-59450D01*
X84432Y-59420D01*
X84561Y-59227D01*
X84606Y-59000D01*
X84561Y-58772D01*
X84529Y-58725D01*
X84830Y-58849D01*
X85168Y-58850D01*
X85480Y-58721D01*
X85720Y-58482D01*
X85849Y-58169D01*
X85850Y-57831D01*
X85806Y-57725D01*
X86149Y-58069D01*
X86149Y-58168D01*
X86278Y-58480D01*
X86517Y-58720D01*
X86830Y-58849D01*
X86930Y-58849D01*
X87530Y-59450D01*
G54D10*
G36*
X88150Y-50500D02*
X87060Y-50500D01*
X86705Y-50145D01*
X87401Y-50145D01*
X87442Y-50207D01*
X87767Y-50423D01*
X88150Y-50500D01*
X88150Y-50500D01*
G37*
G54D22*
X88150Y-50500D02*
X87060Y-50500D01*
X86705Y-50145D01*
X87401Y-50145D01*
X87442Y-50207D01*
X87767Y-50423D01*
X88150Y-50500D01*
G54D10*
G36*
X88329Y-53112D02*
X88326Y-53117D01*
X88250Y-53500D01*
X88250Y-55357D01*
X88076Y-55617D01*
X88000Y-56000D01*
X88000Y-58000D01*
X88020Y-58100D01*
X87850Y-57930D01*
X87850Y-57831D01*
X87721Y-57519D01*
X87482Y-57279D01*
X87169Y-57150D01*
X87069Y-57150D01*
X86457Y-56538D01*
X86442Y-56462D01*
X86280Y-56219D01*
X86234Y-56174D01*
X86173Y-55867D01*
X85957Y-55542D01*
X83559Y-53145D01*
X84259Y-53145D01*
X84689Y-53145D01*
X85401Y-53145D01*
X85404Y-53158D01*
X85543Y-53367D01*
X85753Y-53507D01*
X86000Y-53556D01*
X86246Y-53507D01*
X86456Y-53367D01*
X86595Y-53158D01*
X86623Y-53020D01*
X86736Y-53095D01*
X86983Y-53145D01*
X87411Y-53145D01*
X87575Y-53112D01*
X87738Y-53145D01*
X88166Y-53145D01*
X88329Y-53112D01*
X88329Y-53112D01*
G37*
G54D22*
X88329Y-53112D02*
X88326Y-53117D01*
X88250Y-53500D01*
X88250Y-55357D01*
X88076Y-55617D01*
X88000Y-56000D01*
X88000Y-58000D01*
X88020Y-58100D01*
X87850Y-57930D01*
X87850Y-57831D01*
X87721Y-57519D01*
X87482Y-57279D01*
X87169Y-57150D01*
X87069Y-57150D01*
X86457Y-56538D01*
X86442Y-56462D01*
X86280Y-56219D01*
X86234Y-56174D01*
X86173Y-55867D01*
X85957Y-55542D01*
X83559Y-53145D01*
X84259Y-53145D01*
X84689Y-53145D01*
X85401Y-53145D01*
X85404Y-53158D01*
X85543Y-53367D01*
X85753Y-53507D01*
X86000Y-53556D01*
X86246Y-53507D01*
X86456Y-53367D01*
X86595Y-53158D01*
X86623Y-53020D01*
X86736Y-53095D01*
X86983Y-53145D01*
X87411Y-53145D01*
X87575Y-53112D01*
X87738Y-53145D01*
X88166Y-53145D01*
X88329Y-53112D01*
G54D10*
G36*
X88533Y-59450D02*
X88466Y-59450D01*
X88499Y-59399D01*
X88533Y-59450D01*
X88533Y-59450D01*
G37*
G54D22*
X88533Y-59450D02*
X88466Y-59450D01*
X88499Y-59399D01*
X88533Y-59450D01*
G54D10*
G36*
X89533Y-59450D02*
X89466Y-59450D01*
X89499Y-59399D01*
X89533Y-59450D01*
X89533Y-59450D01*
G37*
G54D22*
X89533Y-59450D02*
X89466Y-59450D01*
X89499Y-59399D01*
X89533Y-59450D01*
G54D10*
G36*
X90013Y-58067D02*
X89979Y-58100D01*
X90000Y-58000D01*
X90013Y-58067D01*
X90013Y-58067D01*
G37*
G54D22*
X90013Y-58067D02*
X89979Y-58100D01*
X90000Y-58000D01*
X90013Y-58067D01*
G54D10*
G36*
X90670Y-50000D02*
X90406Y-50109D01*
X90110Y-50404D01*
X89950Y-50790D01*
X89949Y-51207D01*
X90102Y-51578D01*
X90030Y-51469D01*
X90030Y-51469D01*
X89280Y-50719D01*
X89037Y-50557D01*
X88750Y-50500D01*
X88150Y-50500D01*
X88532Y-50423D01*
X88857Y-50207D01*
X89064Y-50000D01*
X90250Y-50000D01*
X90670Y-50000D01*
X90670Y-50000D01*
G37*
G54D22*
X90670Y-50000D02*
X90406Y-50109D01*
X90110Y-50404D01*
X89950Y-50790D01*
X89949Y-51207D01*
X90102Y-51578D01*
X90030Y-51469D01*
X90030Y-51469D01*
X89280Y-50719D01*
X89037Y-50557D01*
X88750Y-50500D01*
X88150Y-50500D01*
X88532Y-50423D01*
X88857Y-50207D01*
X89064Y-50000D01*
X90250Y-50000D01*
X90670Y-50000D01*
G54D10*
G36*
X91340Y-50004D02*
X91329Y-50000D01*
X91335Y-50000D01*
X91340Y-50004D01*
X91340Y-50004D01*
G37*
G54D22*
X91340Y-50004D02*
X91329Y-50000D01*
X91335Y-50000D01*
X91340Y-50004D01*
G54D10*
G36*
X91340Y-51995D02*
X90292Y-53042D01*
X90250Y-53107D01*
X90250Y-52000D01*
X90249Y-51999D01*
X90192Y-51712D01*
X90192Y-51712D01*
X90138Y-51632D01*
X90121Y-51606D01*
X90404Y-51889D01*
X90790Y-52049D01*
X91207Y-52050D01*
X91340Y-51995D01*
X91340Y-51995D01*
G37*
G54D22*
X91340Y-51995D02*
X90292Y-53042D01*
X90250Y-53107D01*
X90250Y-52000D01*
X90249Y-51999D01*
X90192Y-51712D01*
X90192Y-51712D01*
X90138Y-51632D01*
X90121Y-51606D01*
X90404Y-51889D01*
X90790Y-52049D01*
X91207Y-52050D01*
X91340Y-51995D01*
G54D10*
G36*
X92000Y-50670D02*
X91995Y-50659D01*
X92000Y-50664D01*
X92000Y-50670D01*
X92000Y-50670D01*
G37*
G54D22*
X92000Y-50670D02*
X91995Y-50659D01*
X92000Y-50664D01*
X92000Y-50670D01*
G54D10*
G36*
X92000Y-51335D02*
X91995Y-51340D01*
X92000Y-51329D01*
X92000Y-51335D01*
X92000Y-51335D01*
G37*
G54D22*
X92000Y-51335D02*
X91995Y-51340D01*
X92000Y-51329D01*
X92000Y-51335D01*
G54D10*
G36*
X94450Y-57426D02*
X94311Y-57287D01*
X93785Y-57069D01*
X93216Y-57068D01*
X92690Y-57286D01*
X92287Y-57688D01*
X92069Y-58214D01*
X92068Y-58783D01*
X92286Y-59309D01*
X92426Y-59450D01*
X90469Y-59450D01*
X90932Y-58986D01*
X91000Y-59000D01*
X91382Y-58923D01*
X91707Y-58707D01*
X91923Y-58382D01*
X92000Y-58000D01*
X92000Y-54164D01*
X93707Y-52457D01*
X93707Y-52457D01*
X93793Y-52327D01*
X93923Y-52132D01*
X93923Y-52132D01*
X93999Y-51750D01*
X94000Y-51750D01*
X94000Y-50250D01*
X93923Y-49867D01*
X93707Y-49542D01*
X92457Y-48292D01*
X92132Y-48076D01*
X91750Y-48000D01*
X90250Y-48000D01*
X88650Y-48000D01*
X88267Y-48076D01*
X87942Y-48292D01*
X87442Y-48792D01*
X87401Y-48854D01*
X87310Y-48854D01*
X86598Y-48854D01*
X86595Y-48841D01*
X86456Y-48632D01*
X86246Y-48492D01*
X86000Y-48443D01*
X85753Y-48492D01*
X85543Y-48632D01*
X85404Y-48841D01*
X85376Y-48979D01*
X85263Y-48904D01*
X85252Y-48901D01*
X85248Y-48899D01*
X84999Y-48850D01*
X84974Y-48855D01*
X84588Y-48855D01*
X84425Y-48887D01*
X84261Y-48855D01*
X83833Y-48855D01*
X83586Y-48904D01*
X83377Y-49043D01*
X83237Y-49253D01*
X83188Y-49500D01*
X83212Y-49622D01*
X82542Y-50292D01*
X82326Y-50617D01*
X82265Y-50924D01*
X82049Y-51139D01*
X82050Y-50792D01*
X81890Y-50406D01*
X81595Y-50110D01*
X81209Y-49950D01*
X80792Y-49949D01*
X80406Y-50109D01*
X80110Y-50404D01*
X79950Y-50790D01*
X79949Y-51207D01*
X80109Y-51594D01*
X80404Y-51889D01*
X80790Y-52049D01*
X81207Y-52050D01*
X81433Y-51957D01*
X81326Y-52117D01*
X81250Y-52500D01*
X81250Y-53250D01*
X81326Y-53632D01*
X81542Y-53957D01*
X84542Y-56957D01*
X84831Y-57149D01*
X84519Y-57278D01*
X84279Y-57517D01*
X84150Y-57830D01*
X84149Y-58168D01*
X84276Y-58475D01*
X84239Y-58450D01*
X84011Y-58405D01*
X83988Y-58405D01*
X83760Y-58450D01*
X83722Y-58475D01*
X83849Y-58169D01*
X83850Y-57831D01*
X83721Y-57519D01*
X83482Y-57279D01*
X83169Y-57150D01*
X82831Y-57149D01*
X82519Y-57278D01*
X82279Y-57517D01*
X82150Y-57830D01*
X82149Y-58168D01*
X82276Y-58475D01*
X82239Y-58450D01*
X82011Y-58405D01*
X81988Y-58405D01*
X81760Y-58450D01*
X81722Y-58475D01*
X81849Y-58169D01*
X81850Y-57831D01*
X81721Y-57519D01*
X81482Y-57279D01*
X81169Y-57150D01*
X80831Y-57149D01*
X80519Y-57278D01*
X80279Y-57517D01*
X80150Y-57830D01*
X80149Y-58168D01*
X80278Y-58480D01*
X80517Y-58720D01*
X80830Y-58849D01*
X81168Y-58850D01*
X81469Y-58725D01*
X81438Y-58772D01*
X81393Y-59000D01*
X81438Y-59227D01*
X81567Y-59420D01*
X81611Y-59450D01*
X79573Y-59450D01*
X79712Y-59311D01*
X79930Y-58785D01*
X79931Y-58216D01*
X79713Y-57690D01*
X79311Y-57287D01*
X78785Y-57069D01*
X78216Y-57068D01*
X77690Y-57286D01*
X77550Y-57426D01*
X77550Y-45050D01*
X84926Y-45050D01*
X84787Y-45188D01*
X84569Y-45714D01*
X84568Y-45936D01*
X84085Y-46419D01*
X84011Y-46405D01*
X83988Y-46405D01*
X83760Y-46450D01*
X83567Y-46579D01*
X83438Y-46772D01*
X83393Y-47000D01*
X83438Y-47227D01*
X83567Y-47420D01*
X83760Y-47549D01*
X83988Y-47595D01*
X84011Y-47595D01*
X84239Y-47549D01*
X84432Y-47420D01*
X84561Y-47227D01*
X84606Y-47000D01*
X84588Y-46906D01*
X84756Y-46738D01*
X84786Y-46809D01*
X85188Y-47212D01*
X85714Y-47430D01*
X86283Y-47431D01*
X86809Y-47213D01*
X87212Y-46811D01*
X87430Y-46285D01*
X87431Y-45716D01*
X87213Y-45190D01*
X87073Y-45050D01*
X94450Y-45050D01*
X94450Y-57426D01*
X94450Y-57426D01*
G37*
G54D22*
X94450Y-57426D02*
X94311Y-57287D01*
X93785Y-57069D01*
X93216Y-57068D01*
X92690Y-57286D01*
X92287Y-57688D01*
X92069Y-58214D01*
X92068Y-58783D01*
X92286Y-59309D01*
X92426Y-59450D01*
X90469Y-59450D01*
X90932Y-58986D01*
X91000Y-59000D01*
X91382Y-58923D01*
X91707Y-58707D01*
X91923Y-58382D01*
X92000Y-58000D01*
X92000Y-54164D01*
X93707Y-52457D01*
X93707Y-52457D01*
X93793Y-52327D01*
X93923Y-52132D01*
X93923Y-52132D01*
X93999Y-51750D01*
X94000Y-51750D01*
X94000Y-50250D01*
X93923Y-49867D01*
X93707Y-49542D01*
X92457Y-48292D01*
X92132Y-48076D01*
X91750Y-48000D01*
X90250Y-48000D01*
X88650Y-48000D01*
X88267Y-48076D01*
X87942Y-48292D01*
X87442Y-48792D01*
X87401Y-48854D01*
X87310Y-48854D01*
X86598Y-48854D01*
X86595Y-48841D01*
X86456Y-48632D01*
X86246Y-48492D01*
X86000Y-48443D01*
X85753Y-48492D01*
X85543Y-48632D01*
X85404Y-48841D01*
X85376Y-48979D01*
X85263Y-48904D01*
X85252Y-48901D01*
X85248Y-48899D01*
X84999Y-48850D01*
X84974Y-48855D01*
X84588Y-48855D01*
X84425Y-48887D01*
X84261Y-48855D01*
X83833Y-48855D01*
X83586Y-48904D01*
X83377Y-49043D01*
X83237Y-49253D01*
X83188Y-49500D01*
X83212Y-49622D01*
X82542Y-50292D01*
X82326Y-50617D01*
X82265Y-50924D01*
X82049Y-51139D01*
X82050Y-50792D01*
X81890Y-50406D01*
X81595Y-50110D01*
X81209Y-49950D01*
X80792Y-49949D01*
X80406Y-50109D01*
X80110Y-50404D01*
X79950Y-50790D01*
X79949Y-51207D01*
X80109Y-51594D01*
X80404Y-51889D01*
X80790Y-52049D01*
X81207Y-52050D01*
X81433Y-51957D01*
X81326Y-52117D01*
X81250Y-52500D01*
X81250Y-53250D01*
X81326Y-53632D01*
X81542Y-53957D01*
X84542Y-56957D01*
X84831Y-57149D01*
X84519Y-57278D01*
X84279Y-57517D01*
X84150Y-57830D01*
X84149Y-58168D01*
X84276Y-58475D01*
X84239Y-58450D01*
X84011Y-58405D01*
X83988Y-58405D01*
X83760Y-58450D01*
X83722Y-58475D01*
X83849Y-58169D01*
X83850Y-57831D01*
X83721Y-57519D01*
X83482Y-57279D01*
X83169Y-57150D01*
X82831Y-57149D01*
X82519Y-57278D01*
X82279Y-57517D01*
X82150Y-57830D01*
X82149Y-58168D01*
X82276Y-58475D01*
X82239Y-58450D01*
X82011Y-58405D01*
X81988Y-58405D01*
X81760Y-58450D01*
X81722Y-58475D01*
X81849Y-58169D01*
X81850Y-57831D01*
X81721Y-57519D01*
X81482Y-57279D01*
X81169Y-57150D01*
X80831Y-57149D01*
X80519Y-57278D01*
X80279Y-57517D01*
X80150Y-57830D01*
X80149Y-58168D01*
X80278Y-58480D01*
X80517Y-58720D01*
X80830Y-58849D01*
X81168Y-58850D01*
X81469Y-58725D01*
X81438Y-58772D01*
X81393Y-59000D01*
X81438Y-59227D01*
X81567Y-59420D01*
X81611Y-59450D01*
X79573Y-59450D01*
X79712Y-59311D01*
X79930Y-58785D01*
X79931Y-58216D01*
X79713Y-57690D01*
X79311Y-57287D01*
X78785Y-57069D01*
X78216Y-57068D01*
X77690Y-57286D01*
X77550Y-57426D01*
X77550Y-45050D01*
X84926Y-45050D01*
X84787Y-45188D01*
X84569Y-45714D01*
X84568Y-45936D01*
X84085Y-46419D01*
X84011Y-46405D01*
X83988Y-46405D01*
X83760Y-46450D01*
X83567Y-46579D01*
X83438Y-46772D01*
X83393Y-47000D01*
X83438Y-47227D01*
X83567Y-47420D01*
X83760Y-47549D01*
X83988Y-47595D01*
X84011Y-47595D01*
X84239Y-47549D01*
X84432Y-47420D01*
X84561Y-47227D01*
X84606Y-47000D01*
X84588Y-46906D01*
X84756Y-46738D01*
X84786Y-46809D01*
X85188Y-47212D01*
X85714Y-47430D01*
X86283Y-47431D01*
X86809Y-47213D01*
X87212Y-46811D01*
X87430Y-46285D01*
X87431Y-45716D01*
X87213Y-45190D01*
X87073Y-45050D01*
X94450Y-45050D01*
X94450Y-57426D01*
M02*
