G04 (created by PCBNEW (2013-07-07 BZR 4022)-stable) date 3/11/2014 10:59:26 PM*
%MOIN*%
G04 Gerber Fmt 3.4, Leading zero omitted, Abs format*
%FSLAX34Y34*%
G01*
G70*
G90*
G04 APERTURE LIST*
%ADD10C,0.00590551*%
%ADD11C,0.008*%
%ADD12C,0.0001*%
G04 APERTURE END LIST*
G54D10*
G54D11*
X83835Y-45261D02*
X83607Y-45261D01*
X83721Y-45661D02*
X83721Y-45261D01*
X83397Y-45261D02*
X83321Y-45261D01*
X83283Y-45280D01*
X83245Y-45319D01*
X83226Y-45395D01*
X83226Y-45528D01*
X83245Y-45604D01*
X83283Y-45642D01*
X83321Y-45661D01*
X83397Y-45661D01*
X83435Y-45642D01*
X83473Y-45604D01*
X83492Y-45528D01*
X83492Y-45395D01*
X83473Y-45319D01*
X83435Y-45280D01*
X83397Y-45261D01*
X83054Y-45509D02*
X82749Y-45509D01*
X82578Y-45300D02*
X82559Y-45280D01*
X82521Y-45261D01*
X82426Y-45261D01*
X82388Y-45280D01*
X82369Y-45300D01*
X82349Y-45338D01*
X82349Y-45376D01*
X82369Y-45433D01*
X82597Y-45661D01*
X82349Y-45661D01*
X82197Y-45300D02*
X82178Y-45280D01*
X82140Y-45261D01*
X82045Y-45261D01*
X82007Y-45280D01*
X81988Y-45300D01*
X81969Y-45338D01*
X81969Y-45376D01*
X81988Y-45433D01*
X82216Y-45661D01*
X81969Y-45661D01*
X81721Y-45261D02*
X81683Y-45261D01*
X81645Y-45280D01*
X81626Y-45300D01*
X81607Y-45338D01*
X81588Y-45414D01*
X81588Y-45509D01*
X81607Y-45585D01*
X81626Y-45623D01*
X81645Y-45642D01*
X81683Y-45661D01*
X81721Y-45661D01*
X81759Y-45642D01*
X81778Y-45623D01*
X81797Y-45585D01*
X81816Y-45509D01*
X81816Y-45414D01*
X81797Y-45338D01*
X81778Y-45300D01*
X81759Y-45280D01*
X81721Y-45261D01*
X81111Y-45661D02*
X81111Y-45261D01*
X81111Y-45414D02*
X81073Y-45395D01*
X80997Y-45395D01*
X80959Y-45414D01*
X80940Y-45433D01*
X80921Y-45471D01*
X80921Y-45585D01*
X80940Y-45623D01*
X80959Y-45642D01*
X80997Y-45661D01*
X81073Y-45661D01*
X81111Y-45642D01*
X80749Y-45661D02*
X80749Y-45395D01*
X80749Y-45471D02*
X80730Y-45433D01*
X80711Y-45414D01*
X80673Y-45395D01*
X80635Y-45395D01*
X80350Y-45642D02*
X80388Y-45661D01*
X80464Y-45661D01*
X80502Y-45642D01*
X80521Y-45604D01*
X80521Y-45452D01*
X80502Y-45414D01*
X80464Y-45395D01*
X80388Y-45395D01*
X80350Y-45414D01*
X80330Y-45452D01*
X80330Y-45490D01*
X80521Y-45528D01*
X79988Y-45661D02*
X79988Y-45452D01*
X80007Y-45414D01*
X80045Y-45395D01*
X80121Y-45395D01*
X80159Y-45414D01*
X79988Y-45642D02*
X80026Y-45661D01*
X80121Y-45661D01*
X80159Y-45642D01*
X80178Y-45604D01*
X80178Y-45566D01*
X80159Y-45528D01*
X80121Y-45509D01*
X80026Y-45509D01*
X79988Y-45490D01*
X79797Y-45661D02*
X79797Y-45261D01*
X79759Y-45509D02*
X79645Y-45661D01*
X79645Y-45395D02*
X79797Y-45547D01*
X79416Y-45661D02*
X79454Y-45642D01*
X79473Y-45623D01*
X79492Y-45585D01*
X79492Y-45471D01*
X79473Y-45433D01*
X79454Y-45414D01*
X79416Y-45395D01*
X79359Y-45395D01*
X79321Y-45414D01*
X79302Y-45433D01*
X79283Y-45471D01*
X79283Y-45585D01*
X79302Y-45623D01*
X79321Y-45642D01*
X79359Y-45661D01*
X79416Y-45661D01*
X78940Y-45395D02*
X78940Y-45661D01*
X79111Y-45395D02*
X79111Y-45604D01*
X79092Y-45642D01*
X79054Y-45661D01*
X78997Y-45661D01*
X78959Y-45642D01*
X78940Y-45623D01*
X78807Y-45395D02*
X78654Y-45395D01*
X78750Y-45261D02*
X78750Y-45604D01*
X78730Y-45642D01*
X78692Y-45661D01*
X78654Y-45661D01*
X78254Y-45395D02*
X78159Y-45661D01*
X78064Y-45395D01*
X77702Y-45661D02*
X77930Y-45661D01*
X77816Y-45661D02*
X77816Y-45261D01*
X77854Y-45319D01*
X77892Y-45357D01*
X77930Y-45376D01*
X94228Y-45395D02*
X94076Y-45395D01*
X94171Y-45261D02*
X94171Y-45604D01*
X94152Y-45642D01*
X94114Y-45661D01*
X94076Y-45661D01*
X93942Y-45661D02*
X93942Y-45395D01*
X93942Y-45261D02*
X93961Y-45280D01*
X93942Y-45300D01*
X93923Y-45280D01*
X93942Y-45261D01*
X93942Y-45300D01*
X93752Y-45395D02*
X93752Y-45661D01*
X93752Y-45433D02*
X93733Y-45414D01*
X93695Y-45395D01*
X93638Y-45395D01*
X93600Y-45414D01*
X93580Y-45452D01*
X93580Y-45661D01*
X93219Y-45661D02*
X93219Y-45261D01*
X93219Y-45642D02*
X93257Y-45661D01*
X93333Y-45661D01*
X93371Y-45642D01*
X93390Y-45623D01*
X93409Y-45585D01*
X93409Y-45471D01*
X93390Y-45433D01*
X93371Y-45414D01*
X93333Y-45395D01*
X93257Y-45395D01*
X93219Y-45414D01*
X93028Y-45661D02*
X93028Y-45395D01*
X93028Y-45261D02*
X93047Y-45280D01*
X93028Y-45300D01*
X93009Y-45280D01*
X93028Y-45261D01*
X93028Y-45300D01*
X92685Y-45642D02*
X92723Y-45661D01*
X92799Y-45661D01*
X92838Y-45642D01*
X92857Y-45604D01*
X92857Y-45452D01*
X92838Y-45414D01*
X92799Y-45395D01*
X92723Y-45395D01*
X92685Y-45414D01*
X92666Y-45452D01*
X92666Y-45490D01*
X92857Y-45528D01*
X92495Y-45623D02*
X92476Y-45642D01*
X92495Y-45661D01*
X92514Y-45642D01*
X92495Y-45623D01*
X92495Y-45661D01*
X92133Y-45642D02*
X92171Y-45661D01*
X92247Y-45661D01*
X92285Y-45642D01*
X92304Y-45623D01*
X92323Y-45585D01*
X92323Y-45471D01*
X92304Y-45433D01*
X92285Y-45414D01*
X92247Y-45395D01*
X92171Y-45395D01*
X92133Y-45414D01*
X91904Y-45661D02*
X91942Y-45642D01*
X91961Y-45623D01*
X91980Y-45585D01*
X91980Y-45471D01*
X91961Y-45433D01*
X91942Y-45414D01*
X91904Y-45395D01*
X91847Y-45395D01*
X91809Y-45414D01*
X91790Y-45433D01*
X91771Y-45471D01*
X91771Y-45585D01*
X91790Y-45623D01*
X91809Y-45642D01*
X91847Y-45661D01*
X91904Y-45661D01*
X91599Y-45661D02*
X91599Y-45395D01*
X91599Y-45433D02*
X91580Y-45414D01*
X91542Y-45395D01*
X91485Y-45395D01*
X91447Y-45414D01*
X91428Y-45452D01*
X91428Y-45661D01*
X91428Y-45452D02*
X91409Y-45414D01*
X91371Y-45395D01*
X91314Y-45395D01*
X91276Y-45414D01*
X91257Y-45452D01*
X91257Y-45661D01*
X90780Y-45242D02*
X91123Y-45757D01*
X90647Y-45395D02*
X90647Y-45795D01*
X90647Y-45414D02*
X90609Y-45395D01*
X90533Y-45395D01*
X90495Y-45414D01*
X90476Y-45433D01*
X90457Y-45471D01*
X90457Y-45585D01*
X90476Y-45623D01*
X90495Y-45642D01*
X90533Y-45661D01*
X90609Y-45661D01*
X90647Y-45642D01*
X90133Y-45642D02*
X90171Y-45661D01*
X90247Y-45661D01*
X90285Y-45642D01*
X90304Y-45604D01*
X90304Y-45452D01*
X90285Y-45414D01*
X90247Y-45395D01*
X90171Y-45395D01*
X90133Y-45414D01*
X90114Y-45452D01*
X90114Y-45490D01*
X90304Y-45528D01*
X89942Y-45395D02*
X89942Y-45795D01*
X89942Y-45414D02*
X89904Y-45395D01*
X89828Y-45395D01*
X89790Y-45414D01*
X89771Y-45433D01*
X89752Y-45471D01*
X89752Y-45585D01*
X89771Y-45623D01*
X89790Y-45642D01*
X89828Y-45661D01*
X89904Y-45661D01*
X89942Y-45642D01*
X89409Y-45661D02*
X89409Y-45452D01*
X89428Y-45414D01*
X89466Y-45395D01*
X89542Y-45395D01*
X89580Y-45414D01*
X89409Y-45642D02*
X89447Y-45661D01*
X89542Y-45661D01*
X89580Y-45642D01*
X89599Y-45604D01*
X89599Y-45566D01*
X89580Y-45528D01*
X89542Y-45509D01*
X89447Y-45509D01*
X89409Y-45490D01*
X89238Y-45642D02*
X89199Y-45661D01*
X89123Y-45661D01*
X89085Y-45642D01*
X89066Y-45604D01*
X89066Y-45585D01*
X89085Y-45547D01*
X89123Y-45528D01*
X89180Y-45528D01*
X89219Y-45509D01*
X89238Y-45471D01*
X89238Y-45452D01*
X89219Y-45414D01*
X89180Y-45395D01*
X89123Y-45395D01*
X89085Y-45414D01*
X88838Y-45661D02*
X88876Y-45642D01*
X88895Y-45604D01*
X88895Y-45261D01*
X88514Y-45661D02*
X88514Y-45452D01*
X88533Y-45414D01*
X88571Y-45395D01*
X88647Y-45395D01*
X88685Y-45414D01*
X88514Y-45642D02*
X88552Y-45661D01*
X88647Y-45661D01*
X88685Y-45642D01*
X88704Y-45604D01*
X88704Y-45566D01*
X88685Y-45528D01*
X88647Y-45509D01*
X88552Y-45509D01*
X88514Y-45490D01*
X88323Y-45661D02*
X88323Y-45261D01*
X88323Y-45414D02*
X88285Y-45395D01*
X88209Y-45395D01*
X88171Y-45414D01*
X88152Y-45433D01*
X88133Y-45471D01*
X88133Y-45585D01*
X88152Y-45623D01*
X88171Y-45642D01*
X88209Y-45661D01*
X88285Y-45661D01*
X88323Y-45642D01*
X87980Y-45642D02*
X87942Y-45661D01*
X87866Y-45661D01*
X87828Y-45642D01*
X87809Y-45604D01*
X87809Y-45585D01*
X87828Y-45547D01*
X87866Y-45528D01*
X87923Y-45528D01*
X87961Y-45509D01*
X87980Y-45471D01*
X87980Y-45452D01*
X87961Y-45414D01*
X87923Y-45395D01*
X87866Y-45395D01*
X87828Y-45414D01*
G54D12*
G36*
X81477Y-58707D02*
X81469Y-58703D01*
X81450Y-58691D01*
X81424Y-58674D01*
X81393Y-58653D01*
X81362Y-58632D01*
X81336Y-58615D01*
X81318Y-58603D01*
X81311Y-58599D01*
X81307Y-58600D01*
X81292Y-58608D01*
X81270Y-58619D01*
X81258Y-58625D01*
X81238Y-58634D01*
X81228Y-58636D01*
X81227Y-58633D01*
X81219Y-58618D01*
X81208Y-58592D01*
X81193Y-58558D01*
X81176Y-58518D01*
X81158Y-58475D01*
X81140Y-58431D01*
X81122Y-58389D01*
X81107Y-58351D01*
X81094Y-58321D01*
X81086Y-58299D01*
X81083Y-58290D01*
X81084Y-58288D01*
X81094Y-58279D01*
X81111Y-58266D01*
X81149Y-58235D01*
X81185Y-58189D01*
X81208Y-58137D01*
X81215Y-58079D01*
X81209Y-58026D01*
X81188Y-57975D01*
X81152Y-57928D01*
X81108Y-57894D01*
X81057Y-57872D01*
X81000Y-57865D01*
X80945Y-57871D01*
X80893Y-57892D01*
X80846Y-57927D01*
X80827Y-57950D01*
X80800Y-57997D01*
X80784Y-58047D01*
X80783Y-58059D01*
X80785Y-58115D01*
X80801Y-58168D01*
X80830Y-58215D01*
X80871Y-58254D01*
X80876Y-58258D01*
X80895Y-58272D01*
X80907Y-58281D01*
X80917Y-58289D01*
X80847Y-58459D01*
X80836Y-58486D01*
X80816Y-58532D01*
X80799Y-58572D01*
X80786Y-58604D01*
X80776Y-58625D01*
X80772Y-58634D01*
X80772Y-58634D01*
X80766Y-58635D01*
X80753Y-58630D01*
X80729Y-58619D01*
X80713Y-58611D01*
X80695Y-58602D01*
X80687Y-58599D01*
X80680Y-58603D01*
X80663Y-58614D01*
X80638Y-58631D01*
X80608Y-58651D01*
X80579Y-58671D01*
X80552Y-58689D01*
X80533Y-58701D01*
X80523Y-58706D01*
X80522Y-58706D01*
X80514Y-58701D01*
X80498Y-58689D01*
X80475Y-58667D01*
X80443Y-58635D01*
X80438Y-58630D01*
X80411Y-58602D01*
X80389Y-58579D01*
X80374Y-58563D01*
X80369Y-58556D01*
X80369Y-58556D01*
X80374Y-58546D01*
X80386Y-58527D01*
X80404Y-58500D01*
X80425Y-58469D01*
X80481Y-58387D01*
X80450Y-58310D01*
X80441Y-58287D01*
X80429Y-58258D01*
X80420Y-58238D01*
X80415Y-58229D01*
X80407Y-58226D01*
X80386Y-58221D01*
X80355Y-58214D01*
X80319Y-58208D01*
X80284Y-58201D01*
X80253Y-58195D01*
X80230Y-58191D01*
X80220Y-58189D01*
X80218Y-58187D01*
X80216Y-58182D01*
X80214Y-58172D01*
X80214Y-58153D01*
X80213Y-58123D01*
X80213Y-58079D01*
X80213Y-58075D01*
X80214Y-58033D01*
X80214Y-58000D01*
X80215Y-57979D01*
X80217Y-57971D01*
X80217Y-57971D01*
X80227Y-57968D01*
X80249Y-57964D01*
X80280Y-57957D01*
X80318Y-57950D01*
X80320Y-57950D01*
X80357Y-57943D01*
X80388Y-57936D01*
X80410Y-57931D01*
X80419Y-57928D01*
X80421Y-57926D01*
X80429Y-57911D01*
X80440Y-57888D01*
X80452Y-57860D01*
X80464Y-57831D01*
X80475Y-57804D01*
X80482Y-57785D01*
X80484Y-57776D01*
X80484Y-57776D01*
X80478Y-57767D01*
X80465Y-57747D01*
X80447Y-57721D01*
X80425Y-57689D01*
X80424Y-57686D01*
X80402Y-57655D01*
X80385Y-57628D01*
X80373Y-57609D01*
X80369Y-57601D01*
X80369Y-57600D01*
X80376Y-57591D01*
X80392Y-57573D01*
X80415Y-57549D01*
X80443Y-57521D01*
X80452Y-57513D01*
X80482Y-57483D01*
X80503Y-57463D01*
X80517Y-57453D01*
X80523Y-57450D01*
X80523Y-57451D01*
X80533Y-57456D01*
X80553Y-57469D01*
X80580Y-57488D01*
X80612Y-57509D01*
X80614Y-57511D01*
X80645Y-57532D01*
X80671Y-57550D01*
X80690Y-57562D01*
X80698Y-57567D01*
X80700Y-57567D01*
X80712Y-57563D01*
X80735Y-57556D01*
X80762Y-57545D01*
X80791Y-57533D01*
X80818Y-57522D01*
X80838Y-57513D01*
X80847Y-57508D01*
X80847Y-57507D01*
X80851Y-57496D01*
X80856Y-57472D01*
X80863Y-57440D01*
X80870Y-57401D01*
X80871Y-57395D01*
X80878Y-57358D01*
X80884Y-57327D01*
X80889Y-57305D01*
X80891Y-57296D01*
X80896Y-57295D01*
X80915Y-57294D01*
X80943Y-57293D01*
X80977Y-57293D01*
X81012Y-57293D01*
X81046Y-57294D01*
X81076Y-57295D01*
X81097Y-57296D01*
X81106Y-57298D01*
X81107Y-57299D01*
X81110Y-57310D01*
X81115Y-57334D01*
X81122Y-57366D01*
X81129Y-57405D01*
X81130Y-57412D01*
X81137Y-57449D01*
X81144Y-57480D01*
X81148Y-57501D01*
X81151Y-57509D01*
X81154Y-57511D01*
X81169Y-57518D01*
X81194Y-57528D01*
X81226Y-57541D01*
X81298Y-57570D01*
X81386Y-57509D01*
X81394Y-57504D01*
X81426Y-57482D01*
X81452Y-57465D01*
X81470Y-57453D01*
X81478Y-57449D01*
X81478Y-57449D01*
X81487Y-57457D01*
X81505Y-57473D01*
X81529Y-57497D01*
X81556Y-57524D01*
X81577Y-57545D01*
X81601Y-57570D01*
X81617Y-57586D01*
X81625Y-57597D01*
X81628Y-57604D01*
X81627Y-57608D01*
X81622Y-57617D01*
X81609Y-57636D01*
X81591Y-57663D01*
X81569Y-57694D01*
X81551Y-57721D01*
X81532Y-57750D01*
X81520Y-57771D01*
X81515Y-57782D01*
X81516Y-57786D01*
X81523Y-57803D01*
X81533Y-57830D01*
X81546Y-57861D01*
X81577Y-57931D01*
X81623Y-57939D01*
X81651Y-57945D01*
X81690Y-57952D01*
X81727Y-57959D01*
X81785Y-57971D01*
X81787Y-58183D01*
X81778Y-58187D01*
X81769Y-58190D01*
X81748Y-58194D01*
X81717Y-58200D01*
X81681Y-58207D01*
X81650Y-58213D01*
X81619Y-58219D01*
X81597Y-58223D01*
X81587Y-58225D01*
X81584Y-58229D01*
X81576Y-58244D01*
X81565Y-58268D01*
X81553Y-58297D01*
X81541Y-58326D01*
X81530Y-58354D01*
X81522Y-58375D01*
X81519Y-58386D01*
X81523Y-58394D01*
X81535Y-58412D01*
X81552Y-58438D01*
X81573Y-58469D01*
X81595Y-58500D01*
X81612Y-58527D01*
X81625Y-58546D01*
X81630Y-58554D01*
X81627Y-58560D01*
X81615Y-58575D01*
X81592Y-58599D01*
X81557Y-58634D01*
X81551Y-58639D01*
X81524Y-58666D01*
X81500Y-58687D01*
X81484Y-58702D01*
X81477Y-58707D01*
X81477Y-58707D01*
G37*
M02*
