G04 (created by PCBNEW (2013-07-07 BZR 4022)-stable) date 3/25/2014 11:42:21 PM*
%MOIN*%
G04 Gerber Fmt 3.4, Leading zero omitted, Abs format*
%FSLAX34Y34*%
G01*
G70*
G90*
G04 APERTURE LIST*
%ADD10C,0.00590551*%
%ADD11C,0.16*%
%ADD12C,0.12*%
%ADD13R,0.1185X0.079*%
%ADD14O,0.079X0.1185*%
%ADD15O,0.1185X0.079*%
%ADD16O,0.069X0.069*%
%ADD17C,0.23622*%
%ADD18C,0.02*%
%ADD19C,0.08*%
%ADD20C,0.1*%
%ADD21C,0.01*%
G04 APERTURE END LIST*
G54D10*
G54D11*
X81000Y-51000D03*
X91000Y-51000D03*
G54D12*
X83000Y-58000D03*
X85000Y-58000D03*
X81000Y-58000D03*
X87000Y-58000D03*
X89000Y-58000D03*
X91000Y-58000D03*
G54D13*
X84802Y-52500D03*
G54D14*
X86000Y-52697D03*
G54D15*
X87197Y-52500D03*
G54D13*
X84047Y-52500D03*
G54D15*
X87952Y-52500D03*
G54D13*
X87197Y-49500D03*
G54D14*
X86000Y-49302D03*
G54D15*
X84802Y-49500D03*
G54D13*
X87952Y-49500D03*
G54D15*
X84047Y-49500D03*
G54D16*
X82000Y-59000D03*
X83000Y-59000D03*
X84000Y-59000D03*
X88000Y-59000D03*
X89000Y-59000D03*
X90000Y-59000D03*
G54D17*
X86000Y-46000D03*
X78500Y-58500D03*
X93500Y-58500D03*
G54D16*
X84000Y-47000D03*
G54D18*
X86000Y-46000D02*
X85000Y-46000D01*
X85000Y-46000D02*
X84000Y-47000D01*
G54D19*
X83000Y-58000D02*
X85000Y-56000D01*
X86000Y-53250D02*
X86000Y-52500D01*
G54D20*
X86000Y-55000D02*
X86000Y-53250D01*
X85000Y-56000D02*
X86000Y-55000D01*
X85000Y-58000D02*
X87750Y-55250D01*
X87750Y-52900D02*
X88150Y-52500D01*
X87750Y-55250D02*
X87750Y-52900D01*
X81000Y-58000D02*
X82250Y-56750D01*
X83850Y-55650D02*
X83850Y-52500D01*
X82750Y-56750D02*
X83850Y-55650D01*
X82250Y-56750D02*
X82750Y-56750D01*
G54D19*
X81000Y-58000D02*
X82000Y-59000D01*
X83000Y-58000D02*
X83000Y-59000D01*
X85000Y-58000D02*
X84000Y-59000D01*
G54D10*
G36*
X77567Y-59450D02*
X77550Y-59450D01*
X77550Y-59432D01*
X77567Y-59450D01*
X77567Y-59450D01*
G37*
G54D21*
X77567Y-59450D02*
X77550Y-59450D01*
X77550Y-59432D01*
X77567Y-59450D01*
G54D10*
G36*
X77594Y-57523D02*
X77550Y-57567D01*
X77550Y-57479D01*
X77594Y-57523D01*
X77594Y-57523D01*
G37*
G54D21*
X77594Y-57523D02*
X77550Y-57567D01*
X77550Y-57479D01*
X77594Y-57523D01*
G54D10*
G36*
X79520Y-59450D02*
X79432Y-59450D01*
X79476Y-59405D01*
X79520Y-59450D01*
X79520Y-59450D01*
G37*
G54D21*
X79520Y-59450D02*
X79432Y-59450D01*
X79476Y-59405D01*
X79520Y-59450D01*
G54D10*
G36*
X82450Y-58627D02*
X82352Y-58520D01*
X82250Y-58473D01*
X81851Y-58073D01*
X81851Y-58067D01*
X82195Y-57724D01*
X82147Y-57846D01*
X82153Y-58184D01*
X82270Y-58468D01*
X82397Y-58532D01*
X82434Y-58494D01*
X82450Y-58510D01*
X82450Y-58627D01*
X82450Y-58627D01*
G37*
G54D21*
X82450Y-58627D02*
X82352Y-58520D01*
X82250Y-58473D01*
X81851Y-58073D01*
X81851Y-58067D01*
X82195Y-57724D01*
X82147Y-57846D01*
X82153Y-58184D01*
X82270Y-58468D01*
X82397Y-58532D01*
X82434Y-58494D01*
X82450Y-58510D01*
X82450Y-58627D01*
G54D10*
G36*
X82505Y-57434D02*
X82434Y-57504D01*
X82424Y-57494D01*
X82494Y-57424D01*
X82505Y-57434D01*
X82505Y-57434D01*
G37*
G54D21*
X82505Y-57434D02*
X82434Y-57504D01*
X82424Y-57494D01*
X82494Y-57424D01*
X82505Y-57434D01*
G54D10*
G36*
X82620Y-59450D02*
X82379Y-59450D01*
X82500Y-59317D01*
X82620Y-59450D01*
X82620Y-59450D01*
G37*
G54D21*
X82620Y-59450D02*
X82379Y-59450D01*
X82500Y-59317D01*
X82620Y-59450D01*
G54D10*
G36*
X83620Y-59450D02*
X83379Y-59450D01*
X83500Y-59317D01*
X83620Y-59450D01*
X83620Y-59450D01*
G37*
G54D21*
X83620Y-59450D02*
X83379Y-59450D01*
X83500Y-59317D01*
X83620Y-59450D01*
G54D10*
G36*
X85067Y-45050D02*
X85023Y-45094D01*
X84979Y-45050D01*
X85067Y-45050D01*
X85067Y-45050D01*
G37*
G54D21*
X85067Y-45050D02*
X85023Y-45094D01*
X84979Y-45050D01*
X85067Y-45050D01*
G54D10*
G36*
X85370Y-53145D02*
X85350Y-53250D01*
X85350Y-54730D01*
X84540Y-55540D01*
X84500Y-55600D01*
X84500Y-53145D01*
X84590Y-53145D01*
X84633Y-53145D01*
X84690Y-53145D01*
X84690Y-53144D01*
X84781Y-53106D01*
X84843Y-53045D01*
X84852Y-53045D01*
X84852Y-53082D01*
X84915Y-53145D01*
X85345Y-53145D01*
X85370Y-53145D01*
X85370Y-53145D01*
G37*
G54D21*
X85370Y-53145D02*
X85350Y-53250D01*
X85350Y-54730D01*
X84540Y-55540D01*
X84500Y-55600D01*
X84500Y-53145D01*
X84590Y-53145D01*
X84633Y-53145D01*
X84690Y-53145D01*
X84690Y-53144D01*
X84781Y-53106D01*
X84843Y-53045D01*
X84852Y-53045D01*
X84852Y-53082D01*
X84915Y-53145D01*
X85345Y-53145D01*
X85370Y-53145D01*
G54D10*
G36*
X86505Y-57434D02*
X86434Y-57504D01*
X86424Y-57494D01*
X86494Y-57424D01*
X86505Y-57434D01*
X86505Y-57434D01*
G37*
G54D21*
X86505Y-57434D02*
X86434Y-57504D01*
X86424Y-57494D01*
X86494Y-57424D01*
X86505Y-57434D01*
G54D10*
G36*
X87020Y-45050D02*
X86976Y-45094D01*
X86932Y-45050D01*
X87020Y-45050D01*
X87020Y-45050D01*
G37*
G54D21*
X87020Y-45050D02*
X86976Y-45094D01*
X86932Y-45050D01*
X87020Y-45050D01*
G54D10*
G36*
X87100Y-54980D02*
X84929Y-57151D01*
X84815Y-57153D01*
X84531Y-57270D01*
X84467Y-57397D01*
X84505Y-57434D01*
X84434Y-57504D01*
X84397Y-57467D01*
X84270Y-57531D01*
X84147Y-57846D01*
X84151Y-58071D01*
X83749Y-58473D01*
X83647Y-58520D01*
X83550Y-58627D01*
X83550Y-58510D01*
X83565Y-58495D01*
X83602Y-58532D01*
X83729Y-58468D01*
X83852Y-58153D01*
X83848Y-57928D01*
X85159Y-56618D01*
X85248Y-56600D01*
X85459Y-56459D01*
X86459Y-55459D01*
X86459Y-55459D01*
X86553Y-55318D01*
X86600Y-55248D01*
X86600Y-55248D01*
X86649Y-55000D01*
X86650Y-55000D01*
X86650Y-53250D01*
X86612Y-53061D01*
X86625Y-53013D01*
X86706Y-53076D01*
X86950Y-53145D01*
X87100Y-53145D01*
X87100Y-54980D01*
X87100Y-54980D01*
G37*
G54D21*
X87100Y-54980D02*
X84929Y-57151D01*
X84815Y-57153D01*
X84531Y-57270D01*
X84467Y-57397D01*
X84505Y-57434D01*
X84434Y-57504D01*
X84397Y-57467D01*
X84270Y-57531D01*
X84147Y-57846D01*
X84151Y-58071D01*
X83749Y-58473D01*
X83647Y-58520D01*
X83550Y-58627D01*
X83550Y-58510D01*
X83565Y-58495D01*
X83602Y-58532D01*
X83729Y-58468D01*
X83852Y-58153D01*
X83848Y-57928D01*
X85159Y-56618D01*
X85248Y-56600D01*
X85459Y-56459D01*
X86459Y-55459D01*
X86459Y-55459D01*
X86553Y-55318D01*
X86600Y-55248D01*
X86600Y-55248D01*
X86649Y-55000D01*
X86650Y-55000D01*
X86650Y-53250D01*
X86612Y-53061D01*
X86625Y-53013D01*
X86706Y-53076D01*
X86950Y-53145D01*
X87100Y-53145D01*
X87100Y-54980D01*
G54D10*
G36*
X88505Y-58950D02*
X88500Y-58976D01*
X88494Y-58950D01*
X88505Y-58950D01*
X88505Y-58950D01*
G37*
G54D21*
X88505Y-58950D02*
X88500Y-58976D01*
X88494Y-58950D01*
X88505Y-58950D01*
G54D10*
G36*
X88505Y-59050D02*
X88494Y-59050D01*
X88500Y-59023D01*
X88505Y-59050D01*
X88505Y-59050D01*
G37*
G54D21*
X88505Y-59050D02*
X88494Y-59050D01*
X88500Y-59023D01*
X88505Y-59050D01*
G54D10*
G36*
X88620Y-59450D02*
X88379Y-59450D01*
X88500Y-59317D01*
X88620Y-59450D01*
X88620Y-59450D01*
G37*
G54D21*
X88620Y-59450D02*
X88379Y-59450D01*
X88500Y-59317D01*
X88620Y-59450D01*
G54D10*
G36*
X89505Y-58950D02*
X89500Y-58976D01*
X89494Y-58950D01*
X89505Y-58950D01*
X89505Y-58950D01*
G37*
G54D21*
X89505Y-58950D02*
X89500Y-58976D01*
X89494Y-58950D01*
X89505Y-58950D01*
G54D10*
G36*
X89505Y-59050D02*
X89494Y-59050D01*
X89500Y-59023D01*
X89505Y-59050D01*
X89505Y-59050D01*
G37*
G54D21*
X89505Y-59050D02*
X89494Y-59050D01*
X89500Y-59023D01*
X89505Y-59050D01*
G54D10*
G36*
X89620Y-59450D02*
X89379Y-59450D01*
X89500Y-59317D01*
X89620Y-59450D01*
X89620Y-59450D01*
G37*
G54D21*
X89620Y-59450D02*
X89379Y-59450D01*
X89500Y-59317D01*
X89620Y-59450D01*
G54D10*
G36*
X92567Y-59450D02*
X92479Y-59450D01*
X92523Y-59405D01*
X92567Y-59450D01*
X92567Y-59450D01*
G37*
G54D21*
X92567Y-59450D02*
X92479Y-59450D01*
X92523Y-59405D01*
X92567Y-59450D01*
G54D10*
G36*
X94450Y-57475D02*
X94316Y-57290D01*
X93791Y-57070D01*
X93222Y-57067D01*
X92695Y-57282D01*
X92683Y-57290D01*
X92548Y-57477D01*
X92594Y-57523D01*
X92523Y-57594D01*
X92477Y-57548D01*
X92290Y-57683D01*
X92070Y-58208D01*
X92067Y-58777D01*
X92282Y-59304D01*
X92290Y-59316D01*
X92475Y-59450D01*
X92051Y-59450D01*
X92051Y-51201D01*
X92048Y-50783D01*
X91894Y-50411D01*
X91747Y-50323D01*
X91707Y-50363D01*
X91636Y-50292D01*
X91676Y-50252D01*
X91588Y-50105D01*
X91201Y-49948D01*
X90783Y-49951D01*
X90411Y-50105D01*
X90323Y-50252D01*
X90363Y-50292D01*
X90292Y-50363D01*
X90252Y-50323D01*
X90105Y-50411D01*
X89948Y-50798D01*
X89951Y-51216D01*
X90105Y-51588D01*
X90252Y-51676D01*
X90292Y-51636D01*
X90363Y-51707D01*
X90323Y-51747D01*
X90411Y-51894D01*
X90798Y-52051D01*
X91216Y-52048D01*
X91588Y-51894D01*
X91676Y-51747D01*
X91636Y-51707D01*
X91707Y-51636D01*
X91747Y-51676D01*
X91894Y-51588D01*
X92051Y-51201D01*
X92051Y-59450D01*
X91852Y-59450D01*
X91852Y-58153D01*
X91846Y-57815D01*
X91729Y-57531D01*
X91602Y-57467D01*
X91565Y-57505D01*
X91495Y-57434D01*
X91532Y-57397D01*
X91468Y-57270D01*
X91153Y-57147D01*
X90815Y-57153D01*
X90531Y-57270D01*
X90467Y-57397D01*
X90505Y-57434D01*
X90434Y-57504D01*
X90397Y-57467D01*
X90270Y-57531D01*
X90147Y-57846D01*
X90153Y-58184D01*
X90270Y-58468D01*
X90397Y-58532D01*
X90434Y-58494D01*
X90504Y-58565D01*
X90467Y-58602D01*
X90531Y-58729D01*
X90846Y-58852D01*
X91184Y-58846D01*
X91468Y-58729D01*
X91532Y-58602D01*
X91494Y-58565D01*
X91565Y-58495D01*
X91602Y-58532D01*
X91729Y-58468D01*
X91852Y-58153D01*
X91852Y-59450D01*
X90379Y-59450D01*
X90509Y-59308D01*
X90577Y-59142D01*
X90530Y-59050D01*
X90494Y-59050D01*
X90504Y-59000D01*
X90494Y-58950D01*
X90530Y-58950D01*
X90577Y-58857D01*
X90509Y-58691D01*
X90352Y-58520D01*
X90142Y-58422D01*
X90050Y-58469D01*
X90050Y-58513D01*
X90009Y-58505D01*
X89990Y-58505D01*
X89950Y-58513D01*
X89950Y-58469D01*
X89857Y-58422D01*
X89647Y-58520D01*
X89500Y-58682D01*
X89494Y-58676D01*
X89532Y-58602D01*
X89494Y-58565D01*
X89565Y-58495D01*
X89602Y-58532D01*
X89729Y-58468D01*
X89852Y-58153D01*
X89846Y-57815D01*
X89729Y-57531D01*
X89602Y-57467D01*
X89565Y-57505D01*
X89495Y-57434D01*
X89532Y-57397D01*
X89468Y-57270D01*
X89153Y-57147D01*
X88815Y-57153D01*
X88531Y-57270D01*
X88467Y-57397D01*
X88505Y-57434D01*
X88434Y-57504D01*
X88397Y-57467D01*
X88270Y-57531D01*
X88147Y-57846D01*
X88153Y-58184D01*
X88270Y-58468D01*
X88397Y-58532D01*
X88434Y-58494D01*
X88504Y-58565D01*
X88467Y-58602D01*
X88505Y-58676D01*
X88500Y-58682D01*
X88352Y-58520D01*
X88142Y-58422D01*
X88050Y-58469D01*
X88050Y-58513D01*
X88009Y-58505D01*
X87990Y-58505D01*
X87950Y-58513D01*
X87950Y-58469D01*
X87857Y-58422D01*
X87647Y-58520D01*
X87490Y-58691D01*
X87422Y-58857D01*
X87469Y-58950D01*
X87505Y-58950D01*
X87495Y-59000D01*
X87505Y-59050D01*
X87469Y-59050D01*
X87422Y-59142D01*
X87490Y-59308D01*
X87620Y-59450D01*
X84379Y-59450D01*
X84509Y-59308D01*
X84536Y-59240D01*
X84926Y-58851D01*
X85184Y-58846D01*
X85468Y-58729D01*
X85532Y-58602D01*
X85494Y-58565D01*
X85565Y-58495D01*
X85602Y-58532D01*
X85729Y-58468D01*
X85852Y-58153D01*
X85851Y-58067D01*
X86195Y-57724D01*
X86147Y-57846D01*
X86153Y-58184D01*
X86270Y-58468D01*
X86397Y-58532D01*
X86434Y-58494D01*
X86504Y-58565D01*
X86467Y-58602D01*
X86531Y-58729D01*
X86846Y-58852D01*
X87184Y-58846D01*
X87468Y-58729D01*
X87532Y-58602D01*
X87494Y-58565D01*
X87565Y-58495D01*
X87602Y-58532D01*
X87729Y-58468D01*
X87852Y-58153D01*
X87846Y-57815D01*
X87729Y-57531D01*
X87602Y-57467D01*
X87565Y-57505D01*
X87495Y-57434D01*
X87532Y-57397D01*
X87468Y-57270D01*
X87153Y-57147D01*
X86815Y-57153D01*
X86731Y-57188D01*
X88209Y-55709D01*
X88209Y-55709D01*
X88303Y-55568D01*
X88350Y-55498D01*
X88350Y-55498D01*
X88399Y-55250D01*
X88400Y-55250D01*
X88400Y-53169D01*
X88609Y-52959D01*
X88629Y-52930D01*
X88641Y-52920D01*
X88672Y-52866D01*
X88750Y-52748D01*
X88757Y-52714D01*
X88765Y-52700D01*
X88777Y-52649D01*
X88772Y-52639D01*
X88799Y-52500D01*
X88795Y-52475D01*
X88795Y-49944D01*
X88795Y-49612D01*
X88732Y-49550D01*
X88695Y-49550D01*
X88695Y-49450D01*
X88732Y-49450D01*
X88795Y-49387D01*
X88795Y-49055D01*
X88757Y-48963D01*
X88686Y-48893D01*
X88594Y-48855D01*
X88495Y-48854D01*
X88065Y-48855D01*
X88002Y-48917D01*
X88002Y-48954D01*
X87993Y-48954D01*
X87931Y-48893D01*
X87840Y-48855D01*
X87840Y-48855D01*
X87783Y-48854D01*
X87740Y-48854D01*
X87575Y-48854D01*
X87409Y-48854D01*
X87366Y-48854D01*
X87310Y-48855D01*
X87309Y-48855D01*
X87218Y-48893D01*
X87156Y-48954D01*
X87147Y-48954D01*
X87147Y-48917D01*
X87085Y-48855D01*
X86654Y-48854D01*
X86588Y-48855D01*
X86576Y-48811D01*
X86420Y-48613D01*
X86200Y-48489D01*
X86149Y-48477D01*
X86050Y-48524D01*
X86050Y-48555D01*
X86000Y-48545D01*
X85950Y-48555D01*
X85950Y-48524D01*
X85850Y-48477D01*
X85799Y-48489D01*
X85579Y-48613D01*
X85423Y-48811D01*
X85374Y-48986D01*
X85293Y-48923D01*
X85050Y-48855D01*
X84852Y-48855D01*
X84852Y-48955D01*
X84752Y-48955D01*
X84752Y-48855D01*
X84555Y-48855D01*
X84425Y-48891D01*
X84295Y-48855D01*
X84097Y-48855D01*
X84097Y-48955D01*
X83997Y-48955D01*
X83997Y-48855D01*
X83800Y-48855D01*
X83556Y-48923D01*
X83358Y-49079D01*
X83234Y-49299D01*
X83222Y-49350D01*
X83269Y-49450D01*
X83300Y-49450D01*
X83290Y-49500D01*
X83300Y-49550D01*
X83269Y-49550D01*
X83222Y-49649D01*
X83234Y-49700D01*
X83358Y-49920D01*
X83556Y-50076D01*
X83800Y-50145D01*
X83997Y-50145D01*
X83997Y-50045D01*
X84097Y-50045D01*
X84097Y-50145D01*
X84295Y-50145D01*
X84425Y-50108D01*
X84555Y-50145D01*
X84752Y-50145D01*
X84752Y-50045D01*
X84852Y-50045D01*
X84852Y-50145D01*
X85050Y-50145D01*
X85293Y-50076D01*
X85491Y-49920D01*
X85504Y-49896D01*
X85579Y-49991D01*
X85799Y-50115D01*
X85850Y-50127D01*
X85950Y-50080D01*
X85950Y-50049D01*
X86000Y-50059D01*
X86050Y-50049D01*
X86050Y-50080D01*
X86149Y-50127D01*
X86200Y-50115D01*
X86383Y-50012D01*
X86392Y-50036D01*
X86463Y-50106D01*
X86555Y-50144D01*
X86654Y-50145D01*
X87085Y-50145D01*
X87147Y-50082D01*
X87147Y-50045D01*
X87156Y-50045D01*
X87218Y-50106D01*
X87309Y-50144D01*
X87310Y-50145D01*
X87366Y-50145D01*
X87409Y-50145D01*
X87575Y-50145D01*
X87740Y-50145D01*
X87783Y-50145D01*
X87840Y-50145D01*
X87840Y-50144D01*
X87931Y-50106D01*
X87993Y-50045D01*
X88002Y-50045D01*
X88002Y-50082D01*
X88065Y-50145D01*
X88495Y-50145D01*
X88594Y-50144D01*
X88686Y-50106D01*
X88757Y-50036D01*
X88795Y-49944D01*
X88795Y-52475D01*
X88772Y-52360D01*
X88777Y-52350D01*
X88765Y-52299D01*
X88757Y-52285D01*
X88750Y-52251D01*
X88672Y-52133D01*
X88641Y-52079D01*
X88629Y-52069D01*
X88609Y-52040D01*
X88492Y-51962D01*
X88443Y-51923D01*
X88427Y-51919D01*
X88398Y-51899D01*
X88260Y-51871D01*
X88200Y-51855D01*
X88175Y-51855D01*
X88149Y-51850D01*
X88124Y-51855D01*
X88002Y-51855D01*
X88002Y-51879D01*
X87902Y-51899D01*
X87902Y-51855D01*
X87705Y-51855D01*
X87575Y-51891D01*
X87445Y-51855D01*
X87247Y-51855D01*
X87247Y-51955D01*
X87147Y-51955D01*
X87147Y-51855D01*
X86950Y-51855D01*
X86706Y-51923D01*
X86508Y-52079D01*
X86495Y-52103D01*
X86420Y-52008D01*
X86200Y-51884D01*
X86149Y-51872D01*
X86050Y-51919D01*
X86050Y-51950D01*
X86000Y-51940D01*
X85950Y-51950D01*
X85950Y-51919D01*
X85850Y-51872D01*
X85799Y-51884D01*
X85616Y-51987D01*
X85607Y-51963D01*
X85536Y-51893D01*
X85444Y-51855D01*
X85345Y-51854D01*
X84915Y-51855D01*
X84852Y-51917D01*
X84852Y-51954D01*
X84843Y-51954D01*
X84781Y-51893D01*
X84690Y-51855D01*
X84690Y-51855D01*
X84633Y-51854D01*
X84590Y-51854D01*
X84425Y-51854D01*
X84259Y-51854D01*
X84216Y-51854D01*
X84160Y-51855D01*
X84159Y-51855D01*
X84068Y-51893D01*
X84068Y-51893D01*
X83949Y-51869D01*
X83935Y-51855D01*
X83875Y-51854D01*
X83850Y-51850D01*
X83824Y-51854D01*
X83504Y-51854D01*
X83405Y-51855D01*
X83313Y-51893D01*
X83242Y-51963D01*
X83204Y-52055D01*
X83205Y-52387D01*
X83219Y-52401D01*
X83200Y-52500D01*
X83200Y-55380D01*
X82480Y-56100D01*
X82250Y-56100D01*
X82051Y-56139D01*
X82051Y-51201D01*
X82048Y-50783D01*
X81894Y-50411D01*
X81747Y-50323D01*
X81707Y-50363D01*
X81636Y-50292D01*
X81676Y-50252D01*
X81588Y-50105D01*
X81201Y-49948D01*
X80783Y-49951D01*
X80411Y-50105D01*
X80323Y-50252D01*
X80363Y-50292D01*
X80292Y-50363D01*
X80252Y-50323D01*
X80105Y-50411D01*
X79948Y-50798D01*
X79951Y-51216D01*
X80105Y-51588D01*
X80252Y-51676D01*
X80292Y-51636D01*
X80363Y-51707D01*
X80323Y-51747D01*
X80411Y-51894D01*
X80798Y-52051D01*
X81216Y-52048D01*
X81588Y-51894D01*
X81676Y-51747D01*
X81636Y-51707D01*
X81707Y-51636D01*
X81747Y-51676D01*
X81894Y-51588D01*
X82051Y-51201D01*
X82051Y-56139D01*
X82001Y-56149D01*
X81790Y-56290D01*
X80929Y-57151D01*
X80815Y-57153D01*
X80531Y-57270D01*
X80467Y-57397D01*
X80505Y-57434D01*
X80434Y-57504D01*
X80397Y-57467D01*
X80270Y-57531D01*
X80147Y-57846D01*
X80153Y-58184D01*
X80270Y-58468D01*
X80397Y-58532D01*
X80434Y-58494D01*
X80504Y-58565D01*
X80467Y-58602D01*
X80531Y-58729D01*
X80846Y-58852D01*
X81071Y-58848D01*
X81463Y-59240D01*
X81490Y-59308D01*
X81620Y-59450D01*
X79524Y-59450D01*
X79709Y-59316D01*
X79929Y-58791D01*
X79932Y-58222D01*
X79717Y-57695D01*
X79709Y-57683D01*
X79522Y-57548D01*
X79476Y-57594D01*
X79405Y-57523D01*
X79451Y-57477D01*
X79316Y-57290D01*
X78791Y-57070D01*
X78222Y-57067D01*
X77695Y-57282D01*
X77683Y-57290D01*
X77550Y-57475D01*
X77550Y-45050D01*
X84975Y-45050D01*
X84790Y-45183D01*
X84570Y-45708D01*
X84567Y-46277D01*
X84782Y-46804D01*
X84790Y-46816D01*
X84977Y-46951D01*
X85023Y-46905D01*
X85094Y-46976D01*
X85048Y-47022D01*
X85183Y-47209D01*
X85708Y-47429D01*
X86277Y-47432D01*
X86804Y-47217D01*
X86816Y-47209D01*
X86951Y-47022D01*
X86905Y-46976D01*
X86976Y-46905D01*
X87022Y-46951D01*
X87209Y-46816D01*
X87429Y-46291D01*
X87432Y-45722D01*
X87217Y-45195D01*
X87209Y-45183D01*
X87024Y-45050D01*
X94450Y-45050D01*
X94450Y-57475D01*
X94450Y-57475D01*
G37*
G54D21*
X94450Y-57475D02*
X94316Y-57290D01*
X93791Y-57070D01*
X93222Y-57067D01*
X92695Y-57282D01*
X92683Y-57290D01*
X92548Y-57477D01*
X92594Y-57523D01*
X92523Y-57594D01*
X92477Y-57548D01*
X92290Y-57683D01*
X92070Y-58208D01*
X92067Y-58777D01*
X92282Y-59304D01*
X92290Y-59316D01*
X92475Y-59450D01*
X92051Y-59450D01*
X92051Y-51201D01*
X92048Y-50783D01*
X91894Y-50411D01*
X91747Y-50323D01*
X91707Y-50363D01*
X91636Y-50292D01*
X91676Y-50252D01*
X91588Y-50105D01*
X91201Y-49948D01*
X90783Y-49951D01*
X90411Y-50105D01*
X90323Y-50252D01*
X90363Y-50292D01*
X90292Y-50363D01*
X90252Y-50323D01*
X90105Y-50411D01*
X89948Y-50798D01*
X89951Y-51216D01*
X90105Y-51588D01*
X90252Y-51676D01*
X90292Y-51636D01*
X90363Y-51707D01*
X90323Y-51747D01*
X90411Y-51894D01*
X90798Y-52051D01*
X91216Y-52048D01*
X91588Y-51894D01*
X91676Y-51747D01*
X91636Y-51707D01*
X91707Y-51636D01*
X91747Y-51676D01*
X91894Y-51588D01*
X92051Y-51201D01*
X92051Y-59450D01*
X91852Y-59450D01*
X91852Y-58153D01*
X91846Y-57815D01*
X91729Y-57531D01*
X91602Y-57467D01*
X91565Y-57505D01*
X91495Y-57434D01*
X91532Y-57397D01*
X91468Y-57270D01*
X91153Y-57147D01*
X90815Y-57153D01*
X90531Y-57270D01*
X90467Y-57397D01*
X90505Y-57434D01*
X90434Y-57504D01*
X90397Y-57467D01*
X90270Y-57531D01*
X90147Y-57846D01*
X90153Y-58184D01*
X90270Y-58468D01*
X90397Y-58532D01*
X90434Y-58494D01*
X90504Y-58565D01*
X90467Y-58602D01*
X90531Y-58729D01*
X90846Y-58852D01*
X91184Y-58846D01*
X91468Y-58729D01*
X91532Y-58602D01*
X91494Y-58565D01*
X91565Y-58495D01*
X91602Y-58532D01*
X91729Y-58468D01*
X91852Y-58153D01*
X91852Y-59450D01*
X90379Y-59450D01*
X90509Y-59308D01*
X90577Y-59142D01*
X90530Y-59050D01*
X90494Y-59050D01*
X90504Y-59000D01*
X90494Y-58950D01*
X90530Y-58950D01*
X90577Y-58857D01*
X90509Y-58691D01*
X90352Y-58520D01*
X90142Y-58422D01*
X90050Y-58469D01*
X90050Y-58513D01*
X90009Y-58505D01*
X89990Y-58505D01*
X89950Y-58513D01*
X89950Y-58469D01*
X89857Y-58422D01*
X89647Y-58520D01*
X89500Y-58682D01*
X89494Y-58676D01*
X89532Y-58602D01*
X89494Y-58565D01*
X89565Y-58495D01*
X89602Y-58532D01*
X89729Y-58468D01*
X89852Y-58153D01*
X89846Y-57815D01*
X89729Y-57531D01*
X89602Y-57467D01*
X89565Y-57505D01*
X89495Y-57434D01*
X89532Y-57397D01*
X89468Y-57270D01*
X89153Y-57147D01*
X88815Y-57153D01*
X88531Y-57270D01*
X88467Y-57397D01*
X88505Y-57434D01*
X88434Y-57504D01*
X88397Y-57467D01*
X88270Y-57531D01*
X88147Y-57846D01*
X88153Y-58184D01*
X88270Y-58468D01*
X88397Y-58532D01*
X88434Y-58494D01*
X88504Y-58565D01*
X88467Y-58602D01*
X88505Y-58676D01*
X88500Y-58682D01*
X88352Y-58520D01*
X88142Y-58422D01*
X88050Y-58469D01*
X88050Y-58513D01*
X88009Y-58505D01*
X87990Y-58505D01*
X87950Y-58513D01*
X87950Y-58469D01*
X87857Y-58422D01*
X87647Y-58520D01*
X87490Y-58691D01*
X87422Y-58857D01*
X87469Y-58950D01*
X87505Y-58950D01*
X87495Y-59000D01*
X87505Y-59050D01*
X87469Y-59050D01*
X87422Y-59142D01*
X87490Y-59308D01*
X87620Y-59450D01*
X84379Y-59450D01*
X84509Y-59308D01*
X84536Y-59240D01*
X84926Y-58851D01*
X85184Y-58846D01*
X85468Y-58729D01*
X85532Y-58602D01*
X85494Y-58565D01*
X85565Y-58495D01*
X85602Y-58532D01*
X85729Y-58468D01*
X85852Y-58153D01*
X85851Y-58067D01*
X86195Y-57724D01*
X86147Y-57846D01*
X86153Y-58184D01*
X86270Y-58468D01*
X86397Y-58532D01*
X86434Y-58494D01*
X86504Y-58565D01*
X86467Y-58602D01*
X86531Y-58729D01*
X86846Y-58852D01*
X87184Y-58846D01*
X87468Y-58729D01*
X87532Y-58602D01*
X87494Y-58565D01*
X87565Y-58495D01*
X87602Y-58532D01*
X87729Y-58468D01*
X87852Y-58153D01*
X87846Y-57815D01*
X87729Y-57531D01*
X87602Y-57467D01*
X87565Y-57505D01*
X87495Y-57434D01*
X87532Y-57397D01*
X87468Y-57270D01*
X87153Y-57147D01*
X86815Y-57153D01*
X86731Y-57188D01*
X88209Y-55709D01*
X88209Y-55709D01*
X88303Y-55568D01*
X88350Y-55498D01*
X88350Y-55498D01*
X88399Y-55250D01*
X88400Y-55250D01*
X88400Y-53169D01*
X88609Y-52959D01*
X88629Y-52930D01*
X88641Y-52920D01*
X88672Y-52866D01*
X88750Y-52748D01*
X88757Y-52714D01*
X88765Y-52700D01*
X88777Y-52649D01*
X88772Y-52639D01*
X88799Y-52500D01*
X88795Y-52475D01*
X88795Y-49944D01*
X88795Y-49612D01*
X88732Y-49550D01*
X88695Y-49550D01*
X88695Y-49450D01*
X88732Y-49450D01*
X88795Y-49387D01*
X88795Y-49055D01*
X88757Y-48963D01*
X88686Y-48893D01*
X88594Y-48855D01*
X88495Y-48854D01*
X88065Y-48855D01*
X88002Y-48917D01*
X88002Y-48954D01*
X87993Y-48954D01*
X87931Y-48893D01*
X87840Y-48855D01*
X87840Y-48855D01*
X87783Y-48854D01*
X87740Y-48854D01*
X87575Y-48854D01*
X87409Y-48854D01*
X87366Y-48854D01*
X87310Y-48855D01*
X87309Y-48855D01*
X87218Y-48893D01*
X87156Y-48954D01*
X87147Y-48954D01*
X87147Y-48917D01*
X87085Y-48855D01*
X86654Y-48854D01*
X86588Y-48855D01*
X86576Y-48811D01*
X86420Y-48613D01*
X86200Y-48489D01*
X86149Y-48477D01*
X86050Y-48524D01*
X86050Y-48555D01*
X86000Y-48545D01*
X85950Y-48555D01*
X85950Y-48524D01*
X85850Y-48477D01*
X85799Y-48489D01*
X85579Y-48613D01*
X85423Y-48811D01*
X85374Y-48986D01*
X85293Y-48923D01*
X85050Y-48855D01*
X84852Y-48855D01*
X84852Y-48955D01*
X84752Y-48955D01*
X84752Y-48855D01*
X84555Y-48855D01*
X84425Y-48891D01*
X84295Y-48855D01*
X84097Y-48855D01*
X84097Y-48955D01*
X83997Y-48955D01*
X83997Y-48855D01*
X83800Y-48855D01*
X83556Y-48923D01*
X83358Y-49079D01*
X83234Y-49299D01*
X83222Y-49350D01*
X83269Y-49450D01*
X83300Y-49450D01*
X83290Y-49500D01*
X83300Y-49550D01*
X83269Y-49550D01*
X83222Y-49649D01*
X83234Y-49700D01*
X83358Y-49920D01*
X83556Y-50076D01*
X83800Y-50145D01*
X83997Y-50145D01*
X83997Y-50045D01*
X84097Y-50045D01*
X84097Y-50145D01*
X84295Y-50145D01*
X84425Y-50108D01*
X84555Y-50145D01*
X84752Y-50145D01*
X84752Y-50045D01*
X84852Y-50045D01*
X84852Y-50145D01*
X85050Y-50145D01*
X85293Y-50076D01*
X85491Y-49920D01*
X85504Y-49896D01*
X85579Y-49991D01*
X85799Y-50115D01*
X85850Y-50127D01*
X85950Y-50080D01*
X85950Y-50049D01*
X86000Y-50059D01*
X86050Y-50049D01*
X86050Y-50080D01*
X86149Y-50127D01*
X86200Y-50115D01*
X86383Y-50012D01*
X86392Y-50036D01*
X86463Y-50106D01*
X86555Y-50144D01*
X86654Y-50145D01*
X87085Y-50145D01*
X87147Y-50082D01*
X87147Y-50045D01*
X87156Y-50045D01*
X87218Y-50106D01*
X87309Y-50144D01*
X87310Y-50145D01*
X87366Y-50145D01*
X87409Y-50145D01*
X87575Y-50145D01*
X87740Y-50145D01*
X87783Y-50145D01*
X87840Y-50145D01*
X87840Y-50144D01*
X87931Y-50106D01*
X87993Y-50045D01*
X88002Y-50045D01*
X88002Y-50082D01*
X88065Y-50145D01*
X88495Y-50145D01*
X88594Y-50144D01*
X88686Y-50106D01*
X88757Y-50036D01*
X88795Y-49944D01*
X88795Y-52475D01*
X88772Y-52360D01*
X88777Y-52350D01*
X88765Y-52299D01*
X88757Y-52285D01*
X88750Y-52251D01*
X88672Y-52133D01*
X88641Y-52079D01*
X88629Y-52069D01*
X88609Y-52040D01*
X88492Y-51962D01*
X88443Y-51923D01*
X88427Y-51919D01*
X88398Y-51899D01*
X88260Y-51871D01*
X88200Y-51855D01*
X88175Y-51855D01*
X88149Y-51850D01*
X88124Y-51855D01*
X88002Y-51855D01*
X88002Y-51879D01*
X87902Y-51899D01*
X87902Y-51855D01*
X87705Y-51855D01*
X87575Y-51891D01*
X87445Y-51855D01*
X87247Y-51855D01*
X87247Y-51955D01*
X87147Y-51955D01*
X87147Y-51855D01*
X86950Y-51855D01*
X86706Y-51923D01*
X86508Y-52079D01*
X86495Y-52103D01*
X86420Y-52008D01*
X86200Y-51884D01*
X86149Y-51872D01*
X86050Y-51919D01*
X86050Y-51950D01*
X86000Y-51940D01*
X85950Y-51950D01*
X85950Y-51919D01*
X85850Y-51872D01*
X85799Y-51884D01*
X85616Y-51987D01*
X85607Y-51963D01*
X85536Y-51893D01*
X85444Y-51855D01*
X85345Y-51854D01*
X84915Y-51855D01*
X84852Y-51917D01*
X84852Y-51954D01*
X84843Y-51954D01*
X84781Y-51893D01*
X84690Y-51855D01*
X84690Y-51855D01*
X84633Y-51854D01*
X84590Y-51854D01*
X84425Y-51854D01*
X84259Y-51854D01*
X84216Y-51854D01*
X84160Y-51855D01*
X84159Y-51855D01*
X84068Y-51893D01*
X84068Y-51893D01*
X83949Y-51869D01*
X83935Y-51855D01*
X83875Y-51854D01*
X83850Y-51850D01*
X83824Y-51854D01*
X83504Y-51854D01*
X83405Y-51855D01*
X83313Y-51893D01*
X83242Y-51963D01*
X83204Y-52055D01*
X83205Y-52387D01*
X83219Y-52401D01*
X83200Y-52500D01*
X83200Y-55380D01*
X82480Y-56100D01*
X82250Y-56100D01*
X82051Y-56139D01*
X82051Y-51201D01*
X82048Y-50783D01*
X81894Y-50411D01*
X81747Y-50323D01*
X81707Y-50363D01*
X81636Y-50292D01*
X81676Y-50252D01*
X81588Y-50105D01*
X81201Y-49948D01*
X80783Y-49951D01*
X80411Y-50105D01*
X80323Y-50252D01*
X80363Y-50292D01*
X80292Y-50363D01*
X80252Y-50323D01*
X80105Y-50411D01*
X79948Y-50798D01*
X79951Y-51216D01*
X80105Y-51588D01*
X80252Y-51676D01*
X80292Y-51636D01*
X80363Y-51707D01*
X80323Y-51747D01*
X80411Y-51894D01*
X80798Y-52051D01*
X81216Y-52048D01*
X81588Y-51894D01*
X81676Y-51747D01*
X81636Y-51707D01*
X81707Y-51636D01*
X81747Y-51676D01*
X81894Y-51588D01*
X82051Y-51201D01*
X82051Y-56139D01*
X82001Y-56149D01*
X81790Y-56290D01*
X80929Y-57151D01*
X80815Y-57153D01*
X80531Y-57270D01*
X80467Y-57397D01*
X80505Y-57434D01*
X80434Y-57504D01*
X80397Y-57467D01*
X80270Y-57531D01*
X80147Y-57846D01*
X80153Y-58184D01*
X80270Y-58468D01*
X80397Y-58532D01*
X80434Y-58494D01*
X80504Y-58565D01*
X80467Y-58602D01*
X80531Y-58729D01*
X80846Y-58852D01*
X81071Y-58848D01*
X81463Y-59240D01*
X81490Y-59308D01*
X81620Y-59450D01*
X79524Y-59450D01*
X79709Y-59316D01*
X79929Y-58791D01*
X79932Y-58222D01*
X79717Y-57695D01*
X79709Y-57683D01*
X79522Y-57548D01*
X79476Y-57594D01*
X79405Y-57523D01*
X79451Y-57477D01*
X79316Y-57290D01*
X78791Y-57070D01*
X78222Y-57067D01*
X77695Y-57282D01*
X77683Y-57290D01*
X77550Y-57475D01*
X77550Y-45050D01*
X84975Y-45050D01*
X84790Y-45183D01*
X84570Y-45708D01*
X84567Y-46277D01*
X84782Y-46804D01*
X84790Y-46816D01*
X84977Y-46951D01*
X85023Y-46905D01*
X85094Y-46976D01*
X85048Y-47022D01*
X85183Y-47209D01*
X85708Y-47429D01*
X86277Y-47432D01*
X86804Y-47217D01*
X86816Y-47209D01*
X86951Y-47022D01*
X86905Y-46976D01*
X86976Y-46905D01*
X87022Y-46951D01*
X87209Y-46816D01*
X87429Y-46291D01*
X87432Y-45722D01*
X87217Y-45195D01*
X87209Y-45183D01*
X87024Y-45050D01*
X94450Y-45050D01*
X94450Y-57475D01*
G54D10*
G36*
X94450Y-57567D02*
X94405Y-57523D01*
X94450Y-57479D01*
X94450Y-57567D01*
X94450Y-57567D01*
G37*
G54D21*
X94450Y-57567D02*
X94405Y-57523D01*
X94450Y-57479D01*
X94450Y-57567D01*
G54D10*
G36*
X94450Y-59450D02*
X94432Y-59450D01*
X94450Y-59432D01*
X94450Y-59450D01*
X94450Y-59450D01*
G37*
G54D21*
X94450Y-59450D02*
X94432Y-59450D01*
X94450Y-59432D01*
X94450Y-59450D01*
M02*
