G04 (created by PCBNEW (2013-07-07 BZR 4022)-stable) date 3/25/2014 11:28:59 PM*
%MOIN*%
G04 Gerber Fmt 3.4, Leading zero omitted, Abs format*
%FSLAX34Y34*%
G01*
G70*
G90*
G04 APERTURE LIST*
%ADD10C,0.00590551*%
%ADD11C,0.16*%
%ADD12C,0.12*%
%ADD13R,0.1185X0.079*%
%ADD14O,0.079X0.1185*%
%ADD15O,0.1185X0.079*%
%ADD16O,0.069X0.069*%
%ADD17C,0.23622*%
%ADD18C,0.02*%
%ADD19C,0.08*%
%ADD20C,0.1*%
%ADD21C,0.15*%
%ADD22C,0.01*%
G04 APERTURE END LIST*
G54D10*
G54D11*
X81000Y-51000D03*
X91000Y-51000D03*
G54D12*
X83000Y-58000D03*
X85000Y-58000D03*
X81000Y-58000D03*
X87000Y-58000D03*
X89000Y-58000D03*
X91000Y-58000D03*
G54D13*
X84802Y-52500D03*
G54D14*
X86000Y-52697D03*
G54D15*
X87197Y-52500D03*
G54D13*
X84047Y-52500D03*
G54D15*
X87952Y-52500D03*
G54D13*
X87197Y-49500D03*
G54D14*
X86000Y-49302D03*
G54D15*
X84802Y-49500D03*
G54D13*
X87952Y-49500D03*
G54D15*
X84047Y-49500D03*
G54D16*
X82000Y-59000D03*
X83000Y-59000D03*
X84000Y-59000D03*
X88000Y-59000D03*
X89000Y-59000D03*
X90000Y-59000D03*
G54D17*
X86000Y-46000D03*
X78500Y-58500D03*
X93500Y-58500D03*
G54D18*
X78500Y-58500D02*
X78500Y-56750D01*
G54D19*
X86000Y-49500D02*
X86000Y-50500D01*
G54D20*
X86750Y-51250D02*
X86000Y-50500D01*
G54D21*
X89000Y-56000D02*
X89000Y-58000D01*
G54D20*
X89500Y-52000D02*
X88750Y-51250D01*
X89500Y-53250D02*
X89500Y-52000D01*
X89250Y-53500D02*
X89500Y-53250D01*
G54D21*
X89250Y-55750D02*
X89250Y-53500D01*
X89000Y-56000D02*
X89250Y-55750D01*
G54D20*
X88750Y-51250D02*
X86750Y-51250D01*
G54D21*
X90250Y-49000D02*
X88650Y-49000D01*
X91000Y-53750D02*
X93000Y-51750D01*
X93000Y-51750D02*
X93000Y-50250D01*
X93000Y-50250D02*
X91750Y-49000D01*
X91750Y-49000D02*
X90250Y-49000D01*
X91000Y-58000D02*
X91000Y-53750D01*
X88650Y-49000D02*
X88150Y-49500D01*
G54D19*
X87000Y-58000D02*
X85750Y-56750D01*
X84250Y-50250D02*
X85000Y-49500D01*
X84000Y-50250D02*
X84250Y-50250D01*
G54D21*
X83250Y-51000D02*
X84000Y-50250D01*
G54D20*
X82250Y-52000D02*
X83250Y-51000D01*
X82250Y-52250D02*
X82250Y-52000D01*
X82250Y-52500D02*
X82250Y-52250D01*
G54D21*
X82250Y-53250D02*
X82250Y-52500D01*
X85250Y-56250D02*
X82250Y-53250D01*
G54D20*
X85750Y-56750D02*
X85250Y-56250D01*
G54D19*
X90000Y-59000D02*
X91000Y-58000D01*
X88000Y-59000D02*
X87000Y-58000D01*
X89000Y-59000D02*
X89000Y-58000D01*
G54D10*
G36*
X77567Y-59450D02*
X77550Y-59450D01*
X77550Y-59432D01*
X77567Y-59450D01*
X77567Y-59450D01*
G37*
G54D22*
X77567Y-59450D02*
X77550Y-59450D01*
X77550Y-59432D01*
X77567Y-59450D01*
G54D10*
G36*
X77594Y-57523D02*
X77550Y-57567D01*
X77550Y-57479D01*
X77594Y-57523D01*
X77594Y-57523D01*
G37*
G54D22*
X77594Y-57523D02*
X77550Y-57567D01*
X77550Y-57479D01*
X77594Y-57523D01*
G54D10*
G36*
X79520Y-59450D02*
X79432Y-59450D01*
X79476Y-59405D01*
X79520Y-59450D01*
X79520Y-59450D01*
G37*
G54D22*
X79520Y-59450D02*
X79432Y-59450D01*
X79476Y-59405D01*
X79520Y-59450D01*
G54D10*
G36*
X81718Y-51647D02*
X81661Y-51732D01*
X81636Y-51707D01*
X81707Y-51636D01*
X81718Y-51647D01*
X81718Y-51647D01*
G37*
G54D22*
X81718Y-51647D02*
X81661Y-51732D01*
X81636Y-51707D01*
X81707Y-51636D01*
X81718Y-51647D01*
G54D10*
G36*
X82505Y-58950D02*
X82500Y-58976D01*
X82494Y-58950D01*
X82505Y-58950D01*
X82505Y-58950D01*
G37*
G54D22*
X82505Y-58950D02*
X82500Y-58976D01*
X82494Y-58950D01*
X82505Y-58950D01*
G54D10*
G36*
X82505Y-59050D02*
X82494Y-59050D01*
X82500Y-59023D01*
X82505Y-59050D01*
X82505Y-59050D01*
G37*
G54D22*
X82505Y-59050D02*
X82494Y-59050D01*
X82500Y-59023D01*
X82505Y-59050D01*
G54D10*
G36*
X82620Y-59450D02*
X82379Y-59450D01*
X82500Y-59317D01*
X82620Y-59450D01*
X82620Y-59450D01*
G37*
G54D22*
X82620Y-59450D02*
X82379Y-59450D01*
X82500Y-59317D01*
X82620Y-59450D01*
G54D10*
G36*
X83339Y-51882D02*
X83313Y-51893D01*
X83242Y-51963D01*
X83204Y-52055D01*
X83205Y-52387D01*
X83267Y-52450D01*
X83304Y-52450D01*
X83304Y-52550D01*
X83267Y-52550D01*
X83205Y-52612D01*
X83204Y-52932D01*
X83150Y-52877D01*
X83150Y-52500D01*
X83081Y-52155D01*
X83054Y-52114D01*
X83274Y-51895D01*
X83339Y-51882D01*
X83339Y-51882D01*
G37*
G54D22*
X83339Y-51882D02*
X83313Y-51893D01*
X83242Y-51963D01*
X83204Y-52055D01*
X83205Y-52387D01*
X83267Y-52450D01*
X83304Y-52450D01*
X83304Y-52550D01*
X83267Y-52550D01*
X83205Y-52612D01*
X83204Y-52932D01*
X83150Y-52877D01*
X83150Y-52500D01*
X83081Y-52155D01*
X83054Y-52114D01*
X83274Y-51895D01*
X83339Y-51882D01*
G54D10*
G36*
X83505Y-58950D02*
X83500Y-58976D01*
X83494Y-58950D01*
X83505Y-58950D01*
X83505Y-58950D01*
G37*
G54D22*
X83505Y-58950D02*
X83500Y-58976D01*
X83494Y-58950D01*
X83505Y-58950D01*
G54D10*
G36*
X83505Y-59050D02*
X83494Y-59050D01*
X83500Y-59023D01*
X83505Y-59050D01*
X83505Y-59050D01*
G37*
G54D22*
X83505Y-59050D02*
X83494Y-59050D01*
X83500Y-59023D01*
X83505Y-59050D01*
G54D10*
G36*
X83620Y-59450D02*
X83379Y-59450D01*
X83500Y-59317D01*
X83620Y-59450D01*
X83620Y-59450D01*
G37*
G54D22*
X83620Y-59450D02*
X83379Y-59450D01*
X83500Y-59317D01*
X83620Y-59450D01*
G54D10*
G36*
X85067Y-45050D02*
X85023Y-45094D01*
X84979Y-45050D01*
X85067Y-45050D01*
X85067Y-45050D01*
G37*
G54D22*
X85067Y-45050D02*
X85023Y-45094D01*
X84979Y-45050D01*
X85067Y-45050D01*
G54D10*
G36*
X86789Y-51900D02*
X86706Y-51923D01*
X86508Y-52079D01*
X86495Y-52103D01*
X86420Y-52008D01*
X86200Y-51884D01*
X86149Y-51872D01*
X86050Y-51919D01*
X86050Y-51950D01*
X86000Y-51940D01*
X85950Y-51950D01*
X85950Y-51919D01*
X85850Y-51872D01*
X85799Y-51884D01*
X85616Y-51987D01*
X85607Y-51963D01*
X85536Y-51893D01*
X85444Y-51855D01*
X85345Y-51854D01*
X84915Y-51855D01*
X84852Y-51917D01*
X84852Y-51954D01*
X84843Y-51954D01*
X84781Y-51893D01*
X84690Y-51855D01*
X84690Y-51855D01*
X84633Y-51854D01*
X84590Y-51854D01*
X84425Y-51854D01*
X84259Y-51854D01*
X84216Y-51854D01*
X84160Y-51855D01*
X84159Y-51855D01*
X84068Y-51893D01*
X84006Y-51954D01*
X83997Y-51954D01*
X83997Y-51917D01*
X83935Y-51855D01*
X83504Y-51854D01*
X83476Y-51854D01*
X83594Y-51831D01*
X83886Y-51636D01*
X84636Y-50886D01*
X84831Y-50594D01*
X84868Y-50409D01*
X85165Y-50112D01*
X85293Y-50076D01*
X85450Y-49953D01*
X85450Y-50175D01*
X85399Y-50251D01*
X85350Y-50500D01*
X85399Y-50748D01*
X85540Y-50959D01*
X86290Y-51709D01*
X86290Y-51709D01*
X86431Y-51803D01*
X86501Y-51850D01*
X86501Y-51850D01*
X86749Y-51899D01*
X86750Y-51900D01*
X86789Y-51900D01*
X86789Y-51900D01*
G37*
G54D22*
X86789Y-51900D02*
X86706Y-51923D01*
X86508Y-52079D01*
X86495Y-52103D01*
X86420Y-52008D01*
X86200Y-51884D01*
X86149Y-51872D01*
X86050Y-51919D01*
X86050Y-51950D01*
X86000Y-51940D01*
X85950Y-51950D01*
X85950Y-51919D01*
X85850Y-51872D01*
X85799Y-51884D01*
X85616Y-51987D01*
X85607Y-51963D01*
X85536Y-51893D01*
X85444Y-51855D01*
X85345Y-51854D01*
X84915Y-51855D01*
X84852Y-51917D01*
X84852Y-51954D01*
X84843Y-51954D01*
X84781Y-51893D01*
X84690Y-51855D01*
X84690Y-51855D01*
X84633Y-51854D01*
X84590Y-51854D01*
X84425Y-51854D01*
X84259Y-51854D01*
X84216Y-51854D01*
X84160Y-51855D01*
X84159Y-51855D01*
X84068Y-51893D01*
X84006Y-51954D01*
X83997Y-51954D01*
X83997Y-51917D01*
X83935Y-51855D01*
X83504Y-51854D01*
X83476Y-51854D01*
X83594Y-51831D01*
X83886Y-51636D01*
X84636Y-50886D01*
X84831Y-50594D01*
X84868Y-50409D01*
X85165Y-50112D01*
X85293Y-50076D01*
X85450Y-49953D01*
X85450Y-50175D01*
X85399Y-50251D01*
X85350Y-50500D01*
X85399Y-50748D01*
X85540Y-50959D01*
X86290Y-51709D01*
X86290Y-51709D01*
X86431Y-51803D01*
X86501Y-51850D01*
X86501Y-51850D01*
X86749Y-51899D01*
X86750Y-51900D01*
X86789Y-51900D01*
G54D10*
G36*
X87020Y-45050D02*
X86976Y-45094D01*
X86932Y-45050D01*
X87020Y-45050D01*
X87020Y-45050D01*
G37*
G54D22*
X87020Y-45050D02*
X86976Y-45094D01*
X86932Y-45050D01*
X87020Y-45050D01*
G54D10*
G36*
X87247Y-51955D02*
X87147Y-51955D01*
X87147Y-51900D01*
X87247Y-51900D01*
X87247Y-51955D01*
X87247Y-51955D01*
G37*
G54D22*
X87247Y-51955D02*
X87147Y-51955D01*
X87147Y-51900D01*
X87247Y-51900D01*
X87247Y-51955D01*
G54D10*
G36*
X88002Y-51955D02*
X87902Y-51955D01*
X87902Y-51900D01*
X88002Y-51900D01*
X88002Y-51955D01*
X88002Y-51955D01*
G37*
G54D22*
X88002Y-51955D02*
X87902Y-51955D01*
X87902Y-51900D01*
X88002Y-51900D01*
X88002Y-51955D01*
G54D10*
G36*
X88502Y-53030D02*
X88418Y-53155D01*
X88350Y-53500D01*
X88350Y-55383D01*
X88168Y-55655D01*
X88100Y-56000D01*
X88100Y-58000D01*
X88168Y-58344D01*
X88256Y-58475D01*
X88250Y-58473D01*
X87851Y-58073D01*
X87846Y-57815D01*
X87729Y-57531D01*
X87602Y-57467D01*
X87565Y-57505D01*
X87495Y-57434D01*
X87532Y-57397D01*
X87468Y-57270D01*
X87153Y-57147D01*
X86928Y-57151D01*
X86368Y-56590D01*
X86350Y-56501D01*
X86209Y-56290D01*
X86145Y-56225D01*
X86081Y-55905D01*
X85886Y-55613D01*
X83417Y-53144D01*
X83504Y-53145D01*
X83935Y-53145D01*
X83997Y-53082D01*
X83997Y-53045D01*
X84006Y-53045D01*
X84068Y-53106D01*
X84159Y-53144D01*
X84160Y-53145D01*
X84216Y-53145D01*
X84259Y-53145D01*
X84425Y-53145D01*
X84590Y-53145D01*
X84633Y-53145D01*
X84690Y-53145D01*
X84690Y-53144D01*
X84781Y-53106D01*
X84843Y-53045D01*
X84852Y-53045D01*
X84852Y-53082D01*
X84915Y-53145D01*
X85345Y-53145D01*
X85411Y-53144D01*
X85423Y-53188D01*
X85579Y-53386D01*
X85799Y-53510D01*
X85850Y-53522D01*
X85950Y-53475D01*
X85950Y-53444D01*
X86000Y-53454D01*
X86050Y-53444D01*
X86050Y-53475D01*
X86149Y-53522D01*
X86200Y-53510D01*
X86420Y-53386D01*
X86576Y-53188D01*
X86625Y-53013D01*
X86706Y-53076D01*
X86950Y-53145D01*
X87147Y-53145D01*
X87147Y-53045D01*
X87247Y-53045D01*
X87247Y-53145D01*
X87445Y-53145D01*
X87575Y-53108D01*
X87705Y-53145D01*
X87902Y-53145D01*
X87902Y-53045D01*
X88002Y-53045D01*
X88002Y-53145D01*
X88200Y-53145D01*
X88443Y-53076D01*
X88502Y-53030D01*
X88502Y-53030D01*
G37*
G54D22*
X88502Y-53030D02*
X88418Y-53155D01*
X88350Y-53500D01*
X88350Y-55383D01*
X88168Y-55655D01*
X88100Y-56000D01*
X88100Y-58000D01*
X88168Y-58344D01*
X88256Y-58475D01*
X88250Y-58473D01*
X87851Y-58073D01*
X87846Y-57815D01*
X87729Y-57531D01*
X87602Y-57467D01*
X87565Y-57505D01*
X87495Y-57434D01*
X87532Y-57397D01*
X87468Y-57270D01*
X87153Y-57147D01*
X86928Y-57151D01*
X86368Y-56590D01*
X86350Y-56501D01*
X86209Y-56290D01*
X86145Y-56225D01*
X86081Y-55905D01*
X85886Y-55613D01*
X83417Y-53144D01*
X83504Y-53145D01*
X83935Y-53145D01*
X83997Y-53082D01*
X83997Y-53045D01*
X84006Y-53045D01*
X84068Y-53106D01*
X84159Y-53144D01*
X84160Y-53145D01*
X84216Y-53145D01*
X84259Y-53145D01*
X84425Y-53145D01*
X84590Y-53145D01*
X84633Y-53145D01*
X84690Y-53145D01*
X84690Y-53144D01*
X84781Y-53106D01*
X84843Y-53045D01*
X84852Y-53045D01*
X84852Y-53082D01*
X84915Y-53145D01*
X85345Y-53145D01*
X85411Y-53144D01*
X85423Y-53188D01*
X85579Y-53386D01*
X85799Y-53510D01*
X85850Y-53522D01*
X85950Y-53475D01*
X85950Y-53444D01*
X86000Y-53454D01*
X86050Y-53444D01*
X86050Y-53475D01*
X86149Y-53522D01*
X86200Y-53510D01*
X86420Y-53386D01*
X86576Y-53188D01*
X86625Y-53013D01*
X86706Y-53076D01*
X86950Y-53145D01*
X87147Y-53145D01*
X87147Y-53045D01*
X87247Y-53045D01*
X87247Y-53145D01*
X87445Y-53145D01*
X87575Y-53108D01*
X87705Y-53145D01*
X87902Y-53145D01*
X87902Y-53045D01*
X88002Y-53045D01*
X88002Y-53145D01*
X88200Y-53145D01*
X88443Y-53076D01*
X88502Y-53030D01*
G54D10*
G36*
X88620Y-59450D02*
X88379Y-59450D01*
X88500Y-59317D01*
X88620Y-59450D01*
X88620Y-59450D01*
G37*
G54D22*
X88620Y-59450D02*
X88379Y-59450D01*
X88500Y-59317D01*
X88620Y-59450D01*
G54D10*
G36*
X88850Y-52705D02*
X88709Y-52799D01*
X88765Y-52700D01*
X88777Y-52649D01*
X88730Y-52550D01*
X88699Y-52550D01*
X88709Y-52500D01*
X88699Y-52450D01*
X88730Y-52450D01*
X88777Y-52350D01*
X88765Y-52299D01*
X88641Y-52079D01*
X88443Y-51923D01*
X88360Y-51900D01*
X88480Y-51900D01*
X88850Y-52269D01*
X88850Y-52705D01*
X88850Y-52705D01*
G37*
G54D22*
X88850Y-52705D02*
X88709Y-52799D01*
X88765Y-52700D01*
X88777Y-52649D01*
X88730Y-52550D01*
X88699Y-52550D01*
X88709Y-52500D01*
X88699Y-52450D01*
X88730Y-52450D01*
X88777Y-52350D01*
X88765Y-52299D01*
X88641Y-52079D01*
X88443Y-51923D01*
X88360Y-51900D01*
X88480Y-51900D01*
X88850Y-52269D01*
X88850Y-52705D01*
G54D10*
G36*
X89620Y-59450D02*
X89379Y-59450D01*
X89500Y-59317D01*
X89620Y-59450D01*
X89620Y-59450D01*
G37*
G54D22*
X89620Y-59450D02*
X89379Y-59450D01*
X89500Y-59317D01*
X89620Y-59450D01*
G54D10*
G36*
X90120Y-58101D02*
X89749Y-58473D01*
X89743Y-58475D01*
X89831Y-58344D01*
X89900Y-58000D01*
X89900Y-56366D01*
X89900Y-56366D01*
X90016Y-56191D01*
X90081Y-56094D01*
X90081Y-56094D01*
X90100Y-56001D01*
X90100Y-58000D01*
X90120Y-58101D01*
X90120Y-58101D01*
G37*
G54D22*
X90120Y-58101D02*
X89749Y-58473D01*
X89743Y-58475D01*
X89831Y-58344D01*
X89900Y-58000D01*
X89900Y-56366D01*
X89900Y-56366D01*
X90016Y-56191D01*
X90081Y-56094D01*
X90081Y-56094D01*
X90100Y-56001D01*
X90100Y-58000D01*
X90120Y-58101D01*
G54D10*
G36*
X91578Y-50101D02*
X91201Y-49948D01*
X90783Y-49951D01*
X90411Y-50105D01*
X90323Y-50252D01*
X90363Y-50292D01*
X90292Y-50363D01*
X90252Y-50323D01*
X90105Y-50411D01*
X89948Y-50798D01*
X89951Y-51216D01*
X90105Y-51588D01*
X90252Y-51676D01*
X90292Y-51636D01*
X90363Y-51707D01*
X90323Y-51747D01*
X90411Y-51894D01*
X90798Y-52051D01*
X91216Y-52048D01*
X91578Y-51898D01*
X90363Y-53113D01*
X90168Y-53405D01*
X90149Y-53499D01*
X90125Y-53374D01*
X90149Y-53250D01*
X90150Y-53250D01*
X90150Y-52000D01*
X90149Y-51999D01*
X90100Y-51751D01*
X90100Y-51751D01*
X90053Y-51681D01*
X89959Y-51540D01*
X89959Y-51540D01*
X89209Y-50790D01*
X88998Y-50649D01*
X88750Y-50600D01*
X87019Y-50600D01*
X86564Y-50144D01*
X86654Y-50145D01*
X87085Y-50145D01*
X87147Y-50082D01*
X87147Y-50045D01*
X87156Y-50045D01*
X87218Y-50106D01*
X87309Y-50144D01*
X87310Y-50145D01*
X87366Y-50145D01*
X87409Y-50145D01*
X87526Y-50145D01*
X87805Y-50331D01*
X88150Y-50400D01*
X88494Y-50331D01*
X88786Y-50136D01*
X89022Y-49900D01*
X90250Y-49900D01*
X91377Y-49900D01*
X91578Y-50101D01*
X91578Y-50101D01*
G37*
G54D22*
X91578Y-50101D02*
X91201Y-49948D01*
X90783Y-49951D01*
X90411Y-50105D01*
X90323Y-50252D01*
X90363Y-50292D01*
X90292Y-50363D01*
X90252Y-50323D01*
X90105Y-50411D01*
X89948Y-50798D01*
X89951Y-51216D01*
X90105Y-51588D01*
X90252Y-51676D01*
X90292Y-51636D01*
X90363Y-51707D01*
X90323Y-51747D01*
X90411Y-51894D01*
X90798Y-52051D01*
X91216Y-52048D01*
X91578Y-51898D01*
X90363Y-53113D01*
X90168Y-53405D01*
X90149Y-53499D01*
X90125Y-53374D01*
X90149Y-53250D01*
X90150Y-53250D01*
X90150Y-52000D01*
X90149Y-51999D01*
X90100Y-51751D01*
X90100Y-51751D01*
X90053Y-51681D01*
X89959Y-51540D01*
X89959Y-51540D01*
X89209Y-50790D01*
X88998Y-50649D01*
X88750Y-50600D01*
X87019Y-50600D01*
X86564Y-50144D01*
X86654Y-50145D01*
X87085Y-50145D01*
X87147Y-50082D01*
X87147Y-50045D01*
X87156Y-50045D01*
X87218Y-50106D01*
X87309Y-50144D01*
X87310Y-50145D01*
X87366Y-50145D01*
X87409Y-50145D01*
X87526Y-50145D01*
X87805Y-50331D01*
X88150Y-50400D01*
X88494Y-50331D01*
X88786Y-50136D01*
X89022Y-49900D01*
X90250Y-49900D01*
X91377Y-49900D01*
X91578Y-50101D01*
G54D10*
G36*
X91880Y-50403D02*
X91747Y-50323D01*
X91707Y-50363D01*
X91636Y-50292D01*
X91676Y-50252D01*
X91596Y-50119D01*
X91880Y-50403D01*
X91880Y-50403D01*
G37*
G54D22*
X91880Y-50403D02*
X91747Y-50323D01*
X91707Y-50363D01*
X91636Y-50292D01*
X91676Y-50252D01*
X91596Y-50119D01*
X91880Y-50403D01*
G54D10*
G36*
X91880Y-51596D02*
X91596Y-51880D01*
X91676Y-51747D01*
X91636Y-51707D01*
X91707Y-51636D01*
X91747Y-51676D01*
X91880Y-51596D01*
X91880Y-51596D01*
G37*
G54D22*
X91880Y-51596D02*
X91596Y-51880D01*
X91676Y-51747D01*
X91636Y-51707D01*
X91707Y-51636D01*
X91747Y-51676D01*
X91880Y-51596D01*
G54D10*
G36*
X92100Y-51377D02*
X91898Y-51578D01*
X92051Y-51201D01*
X92048Y-50783D01*
X91898Y-50421D01*
X92100Y-50622D01*
X92100Y-51377D01*
X92100Y-51377D01*
G37*
G54D22*
X92100Y-51377D02*
X91898Y-51578D01*
X92051Y-51201D01*
X92048Y-50783D01*
X91898Y-50421D01*
X92100Y-50622D01*
X92100Y-51377D01*
G54D10*
G36*
X92567Y-59450D02*
X92479Y-59450D01*
X92523Y-59405D01*
X92567Y-59450D01*
X92567Y-59450D01*
G37*
G54D22*
X92567Y-59450D02*
X92479Y-59450D01*
X92523Y-59405D01*
X92567Y-59450D01*
G54D10*
G36*
X94450Y-57475D02*
X94316Y-57290D01*
X93791Y-57070D01*
X93222Y-57067D01*
X92695Y-57282D01*
X92683Y-57290D01*
X92548Y-57477D01*
X92594Y-57523D01*
X92523Y-57594D01*
X92477Y-57548D01*
X92290Y-57683D01*
X92070Y-58208D01*
X92067Y-58777D01*
X92282Y-59304D01*
X92290Y-59316D01*
X92475Y-59450D01*
X90379Y-59450D01*
X90509Y-59308D01*
X90536Y-59240D01*
X90898Y-58879D01*
X91000Y-58900D01*
X91344Y-58831D01*
X91636Y-58636D01*
X91831Y-58344D01*
X91900Y-58000D01*
X91900Y-54122D01*
X93636Y-52386D01*
X93636Y-52386D01*
X93636Y-52386D01*
X93831Y-52094D01*
X93831Y-52094D01*
X93899Y-51750D01*
X93900Y-51750D01*
X93900Y-50250D01*
X93831Y-49905D01*
X93831Y-49905D01*
X93636Y-49613D01*
X92386Y-48363D01*
X92094Y-48168D01*
X91750Y-48100D01*
X90250Y-48100D01*
X88650Y-48100D01*
X88305Y-48168D01*
X88013Y-48363D01*
X87522Y-48854D01*
X87409Y-48854D01*
X87366Y-48854D01*
X87310Y-48855D01*
X87309Y-48855D01*
X87218Y-48893D01*
X87156Y-48954D01*
X87147Y-48954D01*
X87147Y-48917D01*
X87085Y-48855D01*
X86654Y-48854D01*
X86588Y-48855D01*
X86576Y-48811D01*
X86420Y-48613D01*
X86200Y-48489D01*
X86149Y-48477D01*
X86050Y-48524D01*
X86050Y-48555D01*
X86000Y-48545D01*
X85950Y-48555D01*
X85950Y-48524D01*
X85850Y-48477D01*
X85799Y-48489D01*
X85579Y-48613D01*
X85423Y-48811D01*
X85374Y-48986D01*
X85293Y-48923D01*
X85050Y-48855D01*
X84852Y-48855D01*
X84852Y-48955D01*
X84752Y-48955D01*
X84752Y-48855D01*
X84555Y-48855D01*
X84425Y-48891D01*
X84295Y-48855D01*
X84097Y-48855D01*
X84097Y-48955D01*
X83997Y-48955D01*
X83997Y-48855D01*
X83800Y-48855D01*
X83556Y-48923D01*
X83358Y-49079D01*
X83234Y-49299D01*
X83222Y-49350D01*
X83269Y-49450D01*
X83300Y-49450D01*
X83290Y-49500D01*
X83300Y-49550D01*
X83269Y-49550D01*
X83222Y-49649D01*
X83234Y-49700D01*
X83249Y-49727D01*
X82613Y-50363D01*
X82418Y-50655D01*
X82354Y-50975D01*
X81998Y-51332D01*
X82051Y-51201D01*
X82048Y-50783D01*
X81894Y-50411D01*
X81747Y-50323D01*
X81707Y-50363D01*
X81636Y-50292D01*
X81676Y-50252D01*
X81588Y-50105D01*
X81201Y-49948D01*
X80783Y-49951D01*
X80411Y-50105D01*
X80323Y-50252D01*
X80363Y-50292D01*
X80292Y-50363D01*
X80252Y-50323D01*
X80105Y-50411D01*
X79948Y-50798D01*
X79951Y-51216D01*
X80105Y-51588D01*
X80252Y-51676D01*
X80292Y-51636D01*
X80363Y-51707D01*
X80323Y-51747D01*
X80411Y-51894D01*
X80798Y-52051D01*
X81216Y-52048D01*
X81588Y-51894D01*
X81637Y-51812D01*
X81629Y-51853D01*
X81613Y-51863D01*
X81418Y-52155D01*
X81350Y-52500D01*
X81350Y-53250D01*
X81418Y-53594D01*
X81613Y-53886D01*
X84613Y-56886D01*
X84905Y-57081D01*
X85225Y-57145D01*
X85275Y-57195D01*
X85153Y-57147D01*
X84815Y-57153D01*
X84531Y-57270D01*
X84467Y-57397D01*
X84505Y-57434D01*
X84434Y-57504D01*
X84397Y-57467D01*
X84270Y-57531D01*
X84147Y-57846D01*
X84153Y-58184D01*
X84270Y-58468D01*
X84397Y-58532D01*
X84434Y-58494D01*
X84504Y-58565D01*
X84467Y-58602D01*
X84531Y-58729D01*
X84846Y-58852D01*
X85184Y-58846D01*
X85468Y-58729D01*
X85532Y-58602D01*
X85494Y-58565D01*
X85565Y-58495D01*
X85602Y-58532D01*
X85729Y-58468D01*
X85852Y-58153D01*
X85846Y-57815D01*
X85729Y-57531D01*
X85602Y-57467D01*
X85565Y-57505D01*
X85495Y-57434D01*
X85532Y-57397D01*
X85509Y-57352D01*
X85590Y-57368D01*
X86148Y-57926D01*
X86153Y-58184D01*
X86270Y-58468D01*
X86397Y-58532D01*
X86434Y-58494D01*
X86504Y-58565D01*
X86467Y-58602D01*
X86531Y-58729D01*
X86846Y-58852D01*
X87071Y-58848D01*
X87463Y-59240D01*
X87490Y-59308D01*
X87620Y-59450D01*
X84379Y-59450D01*
X84509Y-59308D01*
X84577Y-59142D01*
X84530Y-59050D01*
X84494Y-59050D01*
X84504Y-59000D01*
X84494Y-58950D01*
X84530Y-58950D01*
X84577Y-58857D01*
X84509Y-58691D01*
X84352Y-58520D01*
X84142Y-58422D01*
X84050Y-58469D01*
X84050Y-58513D01*
X84009Y-58505D01*
X83990Y-58505D01*
X83950Y-58513D01*
X83950Y-58469D01*
X83857Y-58422D01*
X83647Y-58520D01*
X83500Y-58682D01*
X83494Y-58676D01*
X83532Y-58602D01*
X83494Y-58565D01*
X83565Y-58495D01*
X83602Y-58532D01*
X83729Y-58468D01*
X83852Y-58153D01*
X83846Y-57815D01*
X83729Y-57531D01*
X83602Y-57467D01*
X83565Y-57505D01*
X83495Y-57434D01*
X83532Y-57397D01*
X83468Y-57270D01*
X83153Y-57147D01*
X82815Y-57153D01*
X82531Y-57270D01*
X82467Y-57397D01*
X82505Y-57434D01*
X82434Y-57504D01*
X82397Y-57467D01*
X82270Y-57531D01*
X82147Y-57846D01*
X82153Y-58184D01*
X82270Y-58468D01*
X82397Y-58532D01*
X82434Y-58494D01*
X82504Y-58565D01*
X82467Y-58602D01*
X82505Y-58676D01*
X82500Y-58682D01*
X82352Y-58520D01*
X82142Y-58422D01*
X82050Y-58469D01*
X82050Y-58513D01*
X82009Y-58505D01*
X81990Y-58505D01*
X81950Y-58513D01*
X81950Y-58469D01*
X81857Y-58422D01*
X81852Y-58424D01*
X81852Y-58153D01*
X81846Y-57815D01*
X81729Y-57531D01*
X81602Y-57467D01*
X81565Y-57505D01*
X81495Y-57434D01*
X81532Y-57397D01*
X81468Y-57270D01*
X81153Y-57147D01*
X80815Y-57153D01*
X80531Y-57270D01*
X80467Y-57397D01*
X80505Y-57434D01*
X80434Y-57504D01*
X80397Y-57467D01*
X80270Y-57531D01*
X80147Y-57846D01*
X80153Y-58184D01*
X80270Y-58468D01*
X80397Y-58532D01*
X80434Y-58494D01*
X80504Y-58565D01*
X80467Y-58602D01*
X80531Y-58729D01*
X80846Y-58852D01*
X81184Y-58846D01*
X81468Y-58729D01*
X81532Y-58602D01*
X81494Y-58565D01*
X81565Y-58495D01*
X81602Y-58532D01*
X81729Y-58468D01*
X81852Y-58153D01*
X81852Y-58424D01*
X81647Y-58520D01*
X81490Y-58691D01*
X81422Y-58857D01*
X81469Y-58950D01*
X81505Y-58950D01*
X81495Y-59000D01*
X81505Y-59050D01*
X81469Y-59050D01*
X81422Y-59142D01*
X81490Y-59308D01*
X81620Y-59450D01*
X79524Y-59450D01*
X79709Y-59316D01*
X79929Y-58791D01*
X79932Y-58222D01*
X79717Y-57695D01*
X79709Y-57683D01*
X79522Y-57548D01*
X79476Y-57594D01*
X79405Y-57523D01*
X79451Y-57477D01*
X79316Y-57290D01*
X78791Y-57070D01*
X78222Y-57067D01*
X77695Y-57282D01*
X77683Y-57290D01*
X77550Y-57475D01*
X77550Y-45050D01*
X84975Y-45050D01*
X84790Y-45183D01*
X84570Y-45708D01*
X84567Y-46277D01*
X84782Y-46804D01*
X84790Y-46816D01*
X84977Y-46951D01*
X85023Y-46905D01*
X85094Y-46976D01*
X85048Y-47022D01*
X85183Y-47209D01*
X85708Y-47429D01*
X86277Y-47432D01*
X86804Y-47217D01*
X86816Y-47209D01*
X86951Y-47022D01*
X86905Y-46976D01*
X86976Y-46905D01*
X87022Y-46951D01*
X87209Y-46816D01*
X87429Y-46291D01*
X87432Y-45722D01*
X87217Y-45195D01*
X87209Y-45183D01*
X87024Y-45050D01*
X94450Y-45050D01*
X94450Y-57475D01*
X94450Y-57475D01*
G37*
G54D22*
X94450Y-57475D02*
X94316Y-57290D01*
X93791Y-57070D01*
X93222Y-57067D01*
X92695Y-57282D01*
X92683Y-57290D01*
X92548Y-57477D01*
X92594Y-57523D01*
X92523Y-57594D01*
X92477Y-57548D01*
X92290Y-57683D01*
X92070Y-58208D01*
X92067Y-58777D01*
X92282Y-59304D01*
X92290Y-59316D01*
X92475Y-59450D01*
X90379Y-59450D01*
X90509Y-59308D01*
X90536Y-59240D01*
X90898Y-58879D01*
X91000Y-58900D01*
X91344Y-58831D01*
X91636Y-58636D01*
X91831Y-58344D01*
X91900Y-58000D01*
X91900Y-54122D01*
X93636Y-52386D01*
X93636Y-52386D01*
X93636Y-52386D01*
X93831Y-52094D01*
X93831Y-52094D01*
X93899Y-51750D01*
X93900Y-51750D01*
X93900Y-50250D01*
X93831Y-49905D01*
X93831Y-49905D01*
X93636Y-49613D01*
X92386Y-48363D01*
X92094Y-48168D01*
X91750Y-48100D01*
X90250Y-48100D01*
X88650Y-48100D01*
X88305Y-48168D01*
X88013Y-48363D01*
X87522Y-48854D01*
X87409Y-48854D01*
X87366Y-48854D01*
X87310Y-48855D01*
X87309Y-48855D01*
X87218Y-48893D01*
X87156Y-48954D01*
X87147Y-48954D01*
X87147Y-48917D01*
X87085Y-48855D01*
X86654Y-48854D01*
X86588Y-48855D01*
X86576Y-48811D01*
X86420Y-48613D01*
X86200Y-48489D01*
X86149Y-48477D01*
X86050Y-48524D01*
X86050Y-48555D01*
X86000Y-48545D01*
X85950Y-48555D01*
X85950Y-48524D01*
X85850Y-48477D01*
X85799Y-48489D01*
X85579Y-48613D01*
X85423Y-48811D01*
X85374Y-48986D01*
X85293Y-48923D01*
X85050Y-48855D01*
X84852Y-48855D01*
X84852Y-48955D01*
X84752Y-48955D01*
X84752Y-48855D01*
X84555Y-48855D01*
X84425Y-48891D01*
X84295Y-48855D01*
X84097Y-48855D01*
X84097Y-48955D01*
X83997Y-48955D01*
X83997Y-48855D01*
X83800Y-48855D01*
X83556Y-48923D01*
X83358Y-49079D01*
X83234Y-49299D01*
X83222Y-49350D01*
X83269Y-49450D01*
X83300Y-49450D01*
X83290Y-49500D01*
X83300Y-49550D01*
X83269Y-49550D01*
X83222Y-49649D01*
X83234Y-49700D01*
X83249Y-49727D01*
X82613Y-50363D01*
X82418Y-50655D01*
X82354Y-50975D01*
X81998Y-51332D01*
X82051Y-51201D01*
X82048Y-50783D01*
X81894Y-50411D01*
X81747Y-50323D01*
X81707Y-50363D01*
X81636Y-50292D01*
X81676Y-50252D01*
X81588Y-50105D01*
X81201Y-49948D01*
X80783Y-49951D01*
X80411Y-50105D01*
X80323Y-50252D01*
X80363Y-50292D01*
X80292Y-50363D01*
X80252Y-50323D01*
X80105Y-50411D01*
X79948Y-50798D01*
X79951Y-51216D01*
X80105Y-51588D01*
X80252Y-51676D01*
X80292Y-51636D01*
X80363Y-51707D01*
X80323Y-51747D01*
X80411Y-51894D01*
X80798Y-52051D01*
X81216Y-52048D01*
X81588Y-51894D01*
X81637Y-51812D01*
X81629Y-51853D01*
X81613Y-51863D01*
X81418Y-52155D01*
X81350Y-52500D01*
X81350Y-53250D01*
X81418Y-53594D01*
X81613Y-53886D01*
X84613Y-56886D01*
X84905Y-57081D01*
X85225Y-57145D01*
X85275Y-57195D01*
X85153Y-57147D01*
X84815Y-57153D01*
X84531Y-57270D01*
X84467Y-57397D01*
X84505Y-57434D01*
X84434Y-57504D01*
X84397Y-57467D01*
X84270Y-57531D01*
X84147Y-57846D01*
X84153Y-58184D01*
X84270Y-58468D01*
X84397Y-58532D01*
X84434Y-58494D01*
X84504Y-58565D01*
X84467Y-58602D01*
X84531Y-58729D01*
X84846Y-58852D01*
X85184Y-58846D01*
X85468Y-58729D01*
X85532Y-58602D01*
X85494Y-58565D01*
X85565Y-58495D01*
X85602Y-58532D01*
X85729Y-58468D01*
X85852Y-58153D01*
X85846Y-57815D01*
X85729Y-57531D01*
X85602Y-57467D01*
X85565Y-57505D01*
X85495Y-57434D01*
X85532Y-57397D01*
X85509Y-57352D01*
X85590Y-57368D01*
X86148Y-57926D01*
X86153Y-58184D01*
X86270Y-58468D01*
X86397Y-58532D01*
X86434Y-58494D01*
X86504Y-58565D01*
X86467Y-58602D01*
X86531Y-58729D01*
X86846Y-58852D01*
X87071Y-58848D01*
X87463Y-59240D01*
X87490Y-59308D01*
X87620Y-59450D01*
X84379Y-59450D01*
X84509Y-59308D01*
X84577Y-59142D01*
X84530Y-59050D01*
X84494Y-59050D01*
X84504Y-59000D01*
X84494Y-58950D01*
X84530Y-58950D01*
X84577Y-58857D01*
X84509Y-58691D01*
X84352Y-58520D01*
X84142Y-58422D01*
X84050Y-58469D01*
X84050Y-58513D01*
X84009Y-58505D01*
X83990Y-58505D01*
X83950Y-58513D01*
X83950Y-58469D01*
X83857Y-58422D01*
X83647Y-58520D01*
X83500Y-58682D01*
X83494Y-58676D01*
X83532Y-58602D01*
X83494Y-58565D01*
X83565Y-58495D01*
X83602Y-58532D01*
X83729Y-58468D01*
X83852Y-58153D01*
X83846Y-57815D01*
X83729Y-57531D01*
X83602Y-57467D01*
X83565Y-57505D01*
X83495Y-57434D01*
X83532Y-57397D01*
X83468Y-57270D01*
X83153Y-57147D01*
X82815Y-57153D01*
X82531Y-57270D01*
X82467Y-57397D01*
X82505Y-57434D01*
X82434Y-57504D01*
X82397Y-57467D01*
X82270Y-57531D01*
X82147Y-57846D01*
X82153Y-58184D01*
X82270Y-58468D01*
X82397Y-58532D01*
X82434Y-58494D01*
X82504Y-58565D01*
X82467Y-58602D01*
X82505Y-58676D01*
X82500Y-58682D01*
X82352Y-58520D01*
X82142Y-58422D01*
X82050Y-58469D01*
X82050Y-58513D01*
X82009Y-58505D01*
X81990Y-58505D01*
X81950Y-58513D01*
X81950Y-58469D01*
X81857Y-58422D01*
X81852Y-58424D01*
X81852Y-58153D01*
X81846Y-57815D01*
X81729Y-57531D01*
X81602Y-57467D01*
X81565Y-57505D01*
X81495Y-57434D01*
X81532Y-57397D01*
X81468Y-57270D01*
X81153Y-57147D01*
X80815Y-57153D01*
X80531Y-57270D01*
X80467Y-57397D01*
X80505Y-57434D01*
X80434Y-57504D01*
X80397Y-57467D01*
X80270Y-57531D01*
X80147Y-57846D01*
X80153Y-58184D01*
X80270Y-58468D01*
X80397Y-58532D01*
X80434Y-58494D01*
X80504Y-58565D01*
X80467Y-58602D01*
X80531Y-58729D01*
X80846Y-58852D01*
X81184Y-58846D01*
X81468Y-58729D01*
X81532Y-58602D01*
X81494Y-58565D01*
X81565Y-58495D01*
X81602Y-58532D01*
X81729Y-58468D01*
X81852Y-58153D01*
X81852Y-58424D01*
X81647Y-58520D01*
X81490Y-58691D01*
X81422Y-58857D01*
X81469Y-58950D01*
X81505Y-58950D01*
X81495Y-59000D01*
X81505Y-59050D01*
X81469Y-59050D01*
X81422Y-59142D01*
X81490Y-59308D01*
X81620Y-59450D01*
X79524Y-59450D01*
X79709Y-59316D01*
X79929Y-58791D01*
X79932Y-58222D01*
X79717Y-57695D01*
X79709Y-57683D01*
X79522Y-57548D01*
X79476Y-57594D01*
X79405Y-57523D01*
X79451Y-57477D01*
X79316Y-57290D01*
X78791Y-57070D01*
X78222Y-57067D01*
X77695Y-57282D01*
X77683Y-57290D01*
X77550Y-57475D01*
X77550Y-45050D01*
X84975Y-45050D01*
X84790Y-45183D01*
X84570Y-45708D01*
X84567Y-46277D01*
X84782Y-46804D01*
X84790Y-46816D01*
X84977Y-46951D01*
X85023Y-46905D01*
X85094Y-46976D01*
X85048Y-47022D01*
X85183Y-47209D01*
X85708Y-47429D01*
X86277Y-47432D01*
X86804Y-47217D01*
X86816Y-47209D01*
X86951Y-47022D01*
X86905Y-46976D01*
X86976Y-46905D01*
X87022Y-46951D01*
X87209Y-46816D01*
X87429Y-46291D01*
X87432Y-45722D01*
X87217Y-45195D01*
X87209Y-45183D01*
X87024Y-45050D01*
X94450Y-45050D01*
X94450Y-57475D01*
G54D10*
G36*
X94450Y-57567D02*
X94405Y-57523D01*
X94450Y-57479D01*
X94450Y-57567D01*
X94450Y-57567D01*
G37*
G54D22*
X94450Y-57567D02*
X94405Y-57523D01*
X94450Y-57479D01*
X94450Y-57567D01*
G54D10*
G36*
X94450Y-59450D02*
X94432Y-59450D01*
X94450Y-59432D01*
X94450Y-59450D01*
X94450Y-59450D01*
G37*
G54D22*
X94450Y-59450D02*
X94432Y-59450D01*
X94450Y-59432D01*
X94450Y-59450D01*
M02*
