G04 (created by PCBNEW (2013-07-07 BZR 4022)-stable) date 3/26/2014 12:19:48 AM*
%MOIN*%
G04 Gerber Fmt 3.4, Leading zero omitted, Abs format*
%FSLAX34Y34*%
G01*
G70*
G90*
G04 APERTURE LIST*
%ADD10C,0.00590551*%
%ADD11C,0.006*%
%ADD12C,0.008*%
%ADD13C,0.0001*%
%ADD14C,0.015*%
G04 APERTURE END LIST*
G54D10*
G54D11*
X83021Y-46835D02*
X82992Y-46821D01*
X82950Y-46821D01*
X82907Y-46835D01*
X82878Y-46864D01*
X82864Y-46892D01*
X82850Y-46950D01*
X82850Y-46992D01*
X82864Y-47050D01*
X82878Y-47078D01*
X82907Y-47107D01*
X82950Y-47121D01*
X82978Y-47121D01*
X83021Y-47107D01*
X83035Y-47092D01*
X83035Y-46992D01*
X82978Y-46992D01*
X83164Y-47121D02*
X83164Y-46821D01*
X83335Y-47121D01*
X83335Y-46821D01*
X83478Y-47121D02*
X83478Y-46821D01*
X83550Y-46821D01*
X83592Y-46835D01*
X83621Y-46864D01*
X83635Y-46892D01*
X83650Y-46950D01*
X83650Y-46992D01*
X83635Y-47050D01*
X83621Y-47078D01*
X83592Y-47107D01*
X83550Y-47121D01*
X83478Y-47121D01*
G54D12*
X88164Y-45261D02*
X88392Y-45261D01*
X88278Y-45661D02*
X88278Y-45261D01*
X88602Y-45261D02*
X88678Y-45261D01*
X88716Y-45280D01*
X88754Y-45319D01*
X88773Y-45395D01*
X88773Y-45528D01*
X88754Y-45604D01*
X88716Y-45642D01*
X88678Y-45661D01*
X88602Y-45661D01*
X88564Y-45642D01*
X88526Y-45604D01*
X88507Y-45528D01*
X88507Y-45395D01*
X88526Y-45319D01*
X88564Y-45280D01*
X88602Y-45261D01*
X88945Y-45509D02*
X89250Y-45509D01*
X89421Y-45300D02*
X89440Y-45280D01*
X89478Y-45261D01*
X89573Y-45261D01*
X89611Y-45280D01*
X89630Y-45300D01*
X89650Y-45338D01*
X89650Y-45376D01*
X89630Y-45433D01*
X89402Y-45661D01*
X89650Y-45661D01*
X89802Y-45300D02*
X89821Y-45280D01*
X89859Y-45261D01*
X89954Y-45261D01*
X89992Y-45280D01*
X90011Y-45300D01*
X90030Y-45338D01*
X90030Y-45376D01*
X90011Y-45433D01*
X89783Y-45661D01*
X90030Y-45661D01*
X90278Y-45261D02*
X90316Y-45261D01*
X90354Y-45280D01*
X90373Y-45300D01*
X90392Y-45338D01*
X90411Y-45414D01*
X90411Y-45509D01*
X90392Y-45585D01*
X90373Y-45623D01*
X90354Y-45642D01*
X90316Y-45661D01*
X90278Y-45661D01*
X90240Y-45642D01*
X90221Y-45623D01*
X90202Y-45585D01*
X90183Y-45509D01*
X90183Y-45414D01*
X90202Y-45338D01*
X90221Y-45300D01*
X90240Y-45280D01*
X90278Y-45261D01*
X90888Y-45661D02*
X90888Y-45261D01*
X90888Y-45414D02*
X90926Y-45395D01*
X91002Y-45395D01*
X91040Y-45414D01*
X91059Y-45433D01*
X91078Y-45471D01*
X91078Y-45585D01*
X91059Y-45623D01*
X91040Y-45642D01*
X91002Y-45661D01*
X90926Y-45661D01*
X90888Y-45642D01*
X91250Y-45661D02*
X91250Y-45395D01*
X91250Y-45471D02*
X91269Y-45433D01*
X91288Y-45414D01*
X91326Y-45395D01*
X91364Y-45395D01*
X91650Y-45642D02*
X91611Y-45661D01*
X91535Y-45661D01*
X91497Y-45642D01*
X91478Y-45604D01*
X91478Y-45452D01*
X91497Y-45414D01*
X91535Y-45395D01*
X91611Y-45395D01*
X91650Y-45414D01*
X91669Y-45452D01*
X91669Y-45490D01*
X91478Y-45528D01*
X92011Y-45661D02*
X92011Y-45452D01*
X91992Y-45414D01*
X91954Y-45395D01*
X91878Y-45395D01*
X91840Y-45414D01*
X92011Y-45642D02*
X91973Y-45661D01*
X91878Y-45661D01*
X91840Y-45642D01*
X91821Y-45604D01*
X91821Y-45566D01*
X91840Y-45528D01*
X91878Y-45509D01*
X91973Y-45509D01*
X92011Y-45490D01*
X92202Y-45661D02*
X92202Y-45261D01*
X92240Y-45509D02*
X92354Y-45661D01*
X92354Y-45395D02*
X92202Y-45547D01*
X92583Y-45661D02*
X92545Y-45642D01*
X92526Y-45623D01*
X92507Y-45585D01*
X92507Y-45471D01*
X92526Y-45433D01*
X92545Y-45414D01*
X92583Y-45395D01*
X92640Y-45395D01*
X92678Y-45414D01*
X92697Y-45433D01*
X92716Y-45471D01*
X92716Y-45585D01*
X92697Y-45623D01*
X92678Y-45642D01*
X92640Y-45661D01*
X92583Y-45661D01*
X93059Y-45395D02*
X93059Y-45661D01*
X92888Y-45395D02*
X92888Y-45604D01*
X92907Y-45642D01*
X92945Y-45661D01*
X93002Y-45661D01*
X93040Y-45642D01*
X93059Y-45623D01*
X93192Y-45395D02*
X93345Y-45395D01*
X93250Y-45261D02*
X93250Y-45604D01*
X93269Y-45642D01*
X93307Y-45661D01*
X93345Y-45661D01*
X93745Y-45395D02*
X93840Y-45661D01*
X93935Y-45395D01*
X94069Y-45300D02*
X94088Y-45280D01*
X94126Y-45261D01*
X94221Y-45261D01*
X94259Y-45280D01*
X94278Y-45300D01*
X94297Y-45338D01*
X94297Y-45376D01*
X94278Y-45433D01*
X94049Y-45661D01*
X94297Y-45661D01*
X77654Y-45395D02*
X77654Y-45719D01*
X77635Y-45757D01*
X77616Y-45776D01*
X77578Y-45795D01*
X77521Y-45795D01*
X77483Y-45776D01*
X77654Y-45642D02*
X77616Y-45661D01*
X77540Y-45661D01*
X77502Y-45642D01*
X77483Y-45623D01*
X77464Y-45585D01*
X77464Y-45471D01*
X77483Y-45433D01*
X77502Y-45414D01*
X77540Y-45395D01*
X77616Y-45395D01*
X77654Y-45414D01*
X77845Y-45661D02*
X77845Y-45395D01*
X77845Y-45261D02*
X77826Y-45280D01*
X77845Y-45300D01*
X77864Y-45280D01*
X77845Y-45261D01*
X77845Y-45300D01*
X77978Y-45395D02*
X78130Y-45395D01*
X78035Y-45261D02*
X78035Y-45604D01*
X78054Y-45642D01*
X78092Y-45661D01*
X78130Y-45661D01*
X78264Y-45661D02*
X78264Y-45261D01*
X78435Y-45661D02*
X78435Y-45452D01*
X78416Y-45414D01*
X78378Y-45395D01*
X78321Y-45395D01*
X78283Y-45414D01*
X78264Y-45433D01*
X78797Y-45395D02*
X78797Y-45661D01*
X78626Y-45395D02*
X78626Y-45604D01*
X78645Y-45642D01*
X78683Y-45661D01*
X78740Y-45661D01*
X78778Y-45642D01*
X78797Y-45623D01*
X78988Y-45661D02*
X78988Y-45261D01*
X78988Y-45414D02*
X79026Y-45395D01*
X79102Y-45395D01*
X79140Y-45414D01*
X79159Y-45433D01*
X79178Y-45471D01*
X79178Y-45585D01*
X79159Y-45623D01*
X79140Y-45642D01*
X79102Y-45661D01*
X79026Y-45661D01*
X78988Y-45642D01*
X79350Y-45623D02*
X79369Y-45642D01*
X79350Y-45661D01*
X79330Y-45642D01*
X79350Y-45623D01*
X79350Y-45661D01*
X79711Y-45642D02*
X79673Y-45661D01*
X79597Y-45661D01*
X79559Y-45642D01*
X79540Y-45623D01*
X79521Y-45585D01*
X79521Y-45471D01*
X79540Y-45433D01*
X79559Y-45414D01*
X79597Y-45395D01*
X79673Y-45395D01*
X79711Y-45414D01*
X79940Y-45661D02*
X79902Y-45642D01*
X79883Y-45623D01*
X79864Y-45585D01*
X79864Y-45471D01*
X79883Y-45433D01*
X79902Y-45414D01*
X79940Y-45395D01*
X79997Y-45395D01*
X80035Y-45414D01*
X80054Y-45433D01*
X80073Y-45471D01*
X80073Y-45585D01*
X80054Y-45623D01*
X80035Y-45642D01*
X79997Y-45661D01*
X79940Y-45661D01*
X80245Y-45661D02*
X80245Y-45395D01*
X80245Y-45433D02*
X80264Y-45414D01*
X80302Y-45395D01*
X80359Y-45395D01*
X80397Y-45414D01*
X80416Y-45452D01*
X80416Y-45661D01*
X80416Y-45452D02*
X80435Y-45414D01*
X80473Y-45395D01*
X80530Y-45395D01*
X80569Y-45414D01*
X80588Y-45452D01*
X80588Y-45661D01*
X81064Y-45242D02*
X80721Y-45757D01*
X81197Y-45395D02*
X81197Y-45795D01*
X81197Y-45414D02*
X81235Y-45395D01*
X81311Y-45395D01*
X81350Y-45414D01*
X81369Y-45433D01*
X81388Y-45471D01*
X81388Y-45585D01*
X81369Y-45623D01*
X81350Y-45642D01*
X81311Y-45661D01*
X81235Y-45661D01*
X81197Y-45642D01*
X81711Y-45642D02*
X81673Y-45661D01*
X81597Y-45661D01*
X81559Y-45642D01*
X81540Y-45604D01*
X81540Y-45452D01*
X81559Y-45414D01*
X81597Y-45395D01*
X81673Y-45395D01*
X81711Y-45414D01*
X81730Y-45452D01*
X81730Y-45490D01*
X81540Y-45528D01*
X81902Y-45395D02*
X81902Y-45795D01*
X81902Y-45414D02*
X81940Y-45395D01*
X82016Y-45395D01*
X82054Y-45414D01*
X82073Y-45433D01*
X82092Y-45471D01*
X82092Y-45585D01*
X82073Y-45623D01*
X82054Y-45642D01*
X82016Y-45661D01*
X81940Y-45661D01*
X81902Y-45642D01*
X82435Y-45661D02*
X82435Y-45452D01*
X82416Y-45414D01*
X82378Y-45395D01*
X82302Y-45395D01*
X82264Y-45414D01*
X82435Y-45642D02*
X82397Y-45661D01*
X82302Y-45661D01*
X82264Y-45642D01*
X82245Y-45604D01*
X82245Y-45566D01*
X82264Y-45528D01*
X82302Y-45509D01*
X82397Y-45509D01*
X82435Y-45490D01*
X82607Y-45642D02*
X82645Y-45661D01*
X82721Y-45661D01*
X82759Y-45642D01*
X82778Y-45604D01*
X82778Y-45585D01*
X82759Y-45547D01*
X82721Y-45528D01*
X82664Y-45528D01*
X82626Y-45509D01*
X82607Y-45471D01*
X82607Y-45452D01*
X82626Y-45414D01*
X82664Y-45395D01*
X82721Y-45395D01*
X82759Y-45414D01*
X83007Y-45661D02*
X82969Y-45642D01*
X82950Y-45604D01*
X82950Y-45261D01*
X83330Y-45661D02*
X83330Y-45452D01*
X83311Y-45414D01*
X83273Y-45395D01*
X83197Y-45395D01*
X83159Y-45414D01*
X83330Y-45642D02*
X83292Y-45661D01*
X83197Y-45661D01*
X83159Y-45642D01*
X83140Y-45604D01*
X83140Y-45566D01*
X83159Y-45528D01*
X83197Y-45509D01*
X83292Y-45509D01*
X83330Y-45490D01*
X83521Y-45661D02*
X83521Y-45261D01*
X83521Y-45414D02*
X83559Y-45395D01*
X83635Y-45395D01*
X83673Y-45414D01*
X83692Y-45433D01*
X83711Y-45471D01*
X83711Y-45585D01*
X83692Y-45623D01*
X83673Y-45642D01*
X83635Y-45661D01*
X83559Y-45661D01*
X83521Y-45642D01*
X83864Y-45642D02*
X83902Y-45661D01*
X83978Y-45661D01*
X84016Y-45642D01*
X84035Y-45604D01*
X84035Y-45585D01*
X84016Y-45547D01*
X83978Y-45528D01*
X83921Y-45528D01*
X83883Y-45509D01*
X83864Y-45471D01*
X83864Y-45452D01*
X83883Y-45414D01*
X83921Y-45395D01*
X83978Y-45395D01*
X84016Y-45414D01*
X91114Y-57161D02*
X90885Y-57161D01*
X91000Y-57161D02*
X91000Y-56761D01*
X90961Y-56819D01*
X90923Y-56857D01*
X90885Y-56876D01*
X88885Y-56800D02*
X88904Y-56780D01*
X88942Y-56761D01*
X89038Y-56761D01*
X89076Y-56780D01*
X89095Y-56800D01*
X89114Y-56838D01*
X89114Y-56876D01*
X89095Y-56933D01*
X88866Y-57161D01*
X89114Y-57161D01*
X86866Y-56761D02*
X87114Y-56761D01*
X86980Y-56914D01*
X87038Y-56914D01*
X87076Y-56933D01*
X87095Y-56952D01*
X87114Y-56990D01*
X87114Y-57085D01*
X87095Y-57123D01*
X87076Y-57142D01*
X87038Y-57161D01*
X86923Y-57161D01*
X86885Y-57142D01*
X86866Y-57123D01*
X81114Y-57161D02*
X80885Y-57161D01*
X81000Y-57161D02*
X81000Y-56761D01*
X80961Y-56819D01*
X80923Y-56857D01*
X80885Y-56876D01*
X82885Y-56800D02*
X82904Y-56780D01*
X82942Y-56761D01*
X83038Y-56761D01*
X83076Y-56780D01*
X83095Y-56800D01*
X83114Y-56838D01*
X83114Y-56876D01*
X83095Y-56933D01*
X82866Y-57161D01*
X83114Y-57161D01*
X84866Y-56761D02*
X85114Y-56761D01*
X84980Y-56914D01*
X85038Y-56914D01*
X85076Y-56933D01*
X85095Y-56952D01*
X85114Y-56990D01*
X85114Y-57085D01*
X85095Y-57123D01*
X85076Y-57142D01*
X85038Y-57161D01*
X84923Y-57161D01*
X84885Y-57142D01*
X84866Y-57123D01*
G54D10*
X89500Y-56070D02*
X89350Y-55950D01*
X89350Y-51310D02*
X89350Y-55950D01*
X89490Y-45930D02*
X89350Y-46050D01*
X89350Y-50690D02*
X89350Y-46050D01*
X82570Y-56040D02*
X82650Y-55950D01*
X82650Y-51310D02*
X82650Y-55950D01*
X82650Y-46100D02*
X82550Y-45970D01*
X82650Y-50690D02*
X82650Y-46100D01*
X80560Y-50828D02*
X77700Y-49138D01*
X77700Y-49138D02*
X77660Y-48958D01*
X77660Y-48958D02*
X77780Y-48778D01*
X77780Y-48778D02*
X77930Y-48728D01*
X77930Y-48728D02*
X78070Y-48768D01*
X78070Y-48768D02*
X79720Y-49718D01*
X79720Y-49718D02*
X80050Y-49698D01*
X80050Y-49698D02*
X80290Y-49478D01*
X80290Y-49478D02*
X80360Y-49108D01*
X80360Y-49108D02*
X80260Y-48908D01*
X80260Y-48908D02*
X77650Y-46238D01*
X77650Y-46238D02*
X77670Y-46068D01*
X77670Y-46068D02*
X77830Y-45938D01*
X77830Y-45938D02*
X77970Y-45928D01*
X77970Y-45928D02*
X78090Y-46008D01*
X78090Y-46008D02*
X79840Y-47698D01*
X79840Y-47698D02*
X79960Y-47708D01*
X79960Y-47708D02*
X80110Y-47648D01*
X80110Y-47648D02*
X80170Y-47428D01*
X80170Y-47428D02*
X79520Y-46238D01*
X79520Y-46238D02*
X79520Y-46108D01*
X79520Y-46108D02*
X79630Y-45968D01*
X79630Y-45968D02*
X79790Y-45928D01*
X79790Y-45928D02*
X79940Y-45968D01*
X79940Y-45968D02*
X81620Y-48268D01*
X81620Y-48268D02*
X81870Y-48318D01*
X81870Y-48318D02*
X82080Y-48238D01*
X82080Y-48238D02*
X82150Y-48108D01*
X82150Y-48108D02*
X82150Y-46148D01*
X82150Y-46148D02*
X82310Y-45968D01*
X82310Y-45968D02*
X82430Y-45938D01*
X82430Y-45938D02*
X82550Y-45968D01*
X82570Y-56040D02*
X82400Y-56078D01*
X82400Y-56078D02*
X82260Y-56018D01*
X82260Y-56018D02*
X82160Y-55818D01*
X82160Y-55818D02*
X82130Y-53888D01*
X82130Y-53888D02*
X82010Y-53738D01*
X82010Y-53738D02*
X81810Y-53658D01*
X81810Y-53658D02*
X81610Y-53758D01*
X81610Y-53758D02*
X79920Y-56048D01*
X79920Y-56048D02*
X79750Y-56078D01*
X79750Y-56078D02*
X79580Y-55998D01*
X79580Y-55998D02*
X79510Y-55818D01*
X79510Y-55818D02*
X80120Y-54708D01*
X80120Y-54708D02*
X80150Y-54428D01*
X80150Y-54428D02*
X80020Y-54308D01*
X80020Y-54308D02*
X79870Y-54308D01*
X79870Y-54308D02*
X79770Y-54378D01*
X79770Y-54378D02*
X78050Y-56028D01*
X78050Y-56028D02*
X77870Y-56078D01*
X77870Y-56078D02*
X77730Y-55998D01*
X77730Y-55998D02*
X77650Y-55838D01*
X77650Y-55838D02*
X77720Y-55688D01*
X77720Y-55688D02*
X80340Y-53018D01*
X80340Y-53018D02*
X80310Y-52568D01*
X80310Y-52568D02*
X80080Y-52348D01*
X80080Y-52348D02*
X79780Y-52308D01*
X79780Y-52308D02*
X79580Y-52358D01*
X79580Y-52358D02*
X77950Y-53288D01*
X77950Y-53288D02*
X77790Y-53238D01*
X77790Y-53238D02*
X77670Y-53098D01*
X77670Y-53098D02*
X77680Y-52928D01*
X77680Y-52928D02*
X77820Y-52778D01*
X77820Y-52778D02*
X80560Y-51218D01*
X91440Y-51228D02*
X94290Y-52888D01*
X94290Y-52888D02*
X94320Y-53088D01*
X94320Y-53088D02*
X94230Y-53218D01*
X94230Y-53218D02*
X94000Y-53268D01*
X94000Y-53268D02*
X92270Y-52278D01*
X92270Y-52278D02*
X91900Y-52338D01*
X91900Y-52338D02*
X91620Y-52658D01*
X91620Y-52658D02*
X91620Y-52918D01*
X91620Y-52918D02*
X91710Y-53098D01*
X91710Y-53098D02*
X94330Y-55768D01*
X94330Y-55768D02*
X94310Y-55958D01*
X94310Y-55958D02*
X94210Y-56058D01*
X94210Y-56058D02*
X94040Y-56088D01*
X94040Y-56088D02*
X93930Y-56018D01*
X93930Y-56018D02*
X92210Y-54348D01*
X92210Y-54348D02*
X92030Y-54298D01*
X92030Y-54298D02*
X91880Y-54368D01*
X91880Y-54368D02*
X91820Y-54528D01*
X91820Y-54528D02*
X91860Y-54698D01*
X91860Y-54698D02*
X92450Y-55748D01*
X92450Y-55748D02*
X92450Y-55908D01*
X92450Y-55908D02*
X92360Y-56038D01*
X92360Y-56038D02*
X92180Y-56088D01*
X92180Y-56088D02*
X92040Y-56018D01*
X92040Y-56018D02*
X90440Y-53818D01*
X90440Y-53818D02*
X90180Y-53648D01*
X90180Y-53648D02*
X90020Y-53698D01*
X90020Y-53698D02*
X89840Y-53908D01*
X89840Y-53908D02*
X89810Y-55938D01*
X89810Y-55938D02*
X89630Y-56058D01*
X89630Y-56058D02*
X89500Y-56068D01*
X89640Y-45928D02*
X89800Y-46058D01*
X89800Y-46058D02*
X89840Y-48088D01*
X89840Y-48088D02*
X89970Y-48288D01*
X89970Y-48288D02*
X90260Y-48318D01*
X90260Y-48318D02*
X90420Y-48208D01*
X90420Y-48208D02*
X92050Y-45978D01*
X92050Y-45978D02*
X92300Y-45928D01*
X92300Y-45928D02*
X92440Y-46038D01*
X92440Y-46038D02*
X92460Y-46258D01*
X92460Y-46258D02*
X91820Y-47388D01*
X91820Y-47388D02*
X91840Y-47598D01*
X91840Y-47598D02*
X91970Y-47698D01*
X91970Y-47698D02*
X92160Y-47688D01*
X92160Y-47688D02*
X93980Y-45938D01*
X93980Y-45938D02*
X94190Y-45938D01*
X94190Y-45938D02*
X94290Y-46028D01*
X94290Y-46028D02*
X94310Y-46278D01*
X94310Y-46278D02*
X91650Y-49028D01*
X91650Y-49028D02*
X91620Y-49298D01*
X91620Y-49298D02*
X91910Y-49678D01*
X91910Y-49678D02*
X92240Y-49728D01*
X92240Y-49728D02*
X94040Y-48728D01*
X94040Y-48728D02*
X94210Y-48768D01*
X94210Y-48768D02*
X94310Y-48908D01*
X94310Y-48908D02*
X94240Y-49188D01*
X94240Y-49188D02*
X91450Y-50808D01*
X89490Y-45928D02*
X89640Y-45928D01*
X82650Y-51310D02*
X89350Y-51310D01*
X82650Y-50690D02*
X89350Y-50690D01*
G54D13*
G36*
X90523Y-56707D02*
X90531Y-56703D01*
X90550Y-56691D01*
X90576Y-56674D01*
X90607Y-56653D01*
X90638Y-56632D01*
X90664Y-56615D01*
X90682Y-56603D01*
X90689Y-56599D01*
X90693Y-56600D01*
X90708Y-56608D01*
X90730Y-56619D01*
X90742Y-56625D01*
X90762Y-56634D01*
X90772Y-56636D01*
X90773Y-56633D01*
X90781Y-56618D01*
X90792Y-56592D01*
X90807Y-56558D01*
X90824Y-56518D01*
X90842Y-56475D01*
X90860Y-56431D01*
X90878Y-56389D01*
X90893Y-56351D01*
X90906Y-56321D01*
X90914Y-56299D01*
X90917Y-56290D01*
X90916Y-56288D01*
X90906Y-56279D01*
X90889Y-56266D01*
X90851Y-56235D01*
X90815Y-56189D01*
X90792Y-56137D01*
X90785Y-56079D01*
X90791Y-56026D01*
X90812Y-55975D01*
X90848Y-55928D01*
X90892Y-55894D01*
X90943Y-55872D01*
X91000Y-55865D01*
X91055Y-55871D01*
X91107Y-55892D01*
X91154Y-55927D01*
X91173Y-55950D01*
X91200Y-55997D01*
X91216Y-56047D01*
X91217Y-56059D01*
X91215Y-56115D01*
X91199Y-56168D01*
X91170Y-56215D01*
X91129Y-56254D01*
X91124Y-56258D01*
X91105Y-56272D01*
X91093Y-56281D01*
X91083Y-56289D01*
X91153Y-56459D01*
X91164Y-56486D01*
X91184Y-56532D01*
X91201Y-56572D01*
X91214Y-56604D01*
X91224Y-56625D01*
X91228Y-56634D01*
X91228Y-56634D01*
X91234Y-56635D01*
X91247Y-56630D01*
X91271Y-56619D01*
X91287Y-56611D01*
X91305Y-56602D01*
X91313Y-56599D01*
X91320Y-56603D01*
X91337Y-56614D01*
X91362Y-56631D01*
X91392Y-56651D01*
X91421Y-56671D01*
X91448Y-56689D01*
X91467Y-56701D01*
X91477Y-56706D01*
X91478Y-56706D01*
X91486Y-56701D01*
X91502Y-56689D01*
X91525Y-56667D01*
X91557Y-56635D01*
X91562Y-56630D01*
X91589Y-56602D01*
X91611Y-56579D01*
X91626Y-56563D01*
X91631Y-56556D01*
X91631Y-56556D01*
X91626Y-56546D01*
X91614Y-56527D01*
X91596Y-56500D01*
X91575Y-56469D01*
X91519Y-56387D01*
X91550Y-56310D01*
X91559Y-56287D01*
X91571Y-56258D01*
X91580Y-56238D01*
X91585Y-56229D01*
X91593Y-56226D01*
X91614Y-56221D01*
X91645Y-56214D01*
X91681Y-56208D01*
X91716Y-56201D01*
X91747Y-56195D01*
X91770Y-56191D01*
X91780Y-56189D01*
X91782Y-56187D01*
X91784Y-56182D01*
X91786Y-56172D01*
X91786Y-56153D01*
X91787Y-56123D01*
X91787Y-56079D01*
X91787Y-56075D01*
X91786Y-56033D01*
X91786Y-56000D01*
X91785Y-55979D01*
X91783Y-55971D01*
X91783Y-55971D01*
X91773Y-55968D01*
X91751Y-55964D01*
X91720Y-55957D01*
X91682Y-55950D01*
X91680Y-55950D01*
X91643Y-55943D01*
X91612Y-55936D01*
X91590Y-55931D01*
X91581Y-55928D01*
X91579Y-55926D01*
X91571Y-55911D01*
X91560Y-55888D01*
X91548Y-55860D01*
X91536Y-55831D01*
X91525Y-55804D01*
X91518Y-55785D01*
X91516Y-55776D01*
X91516Y-55776D01*
X91522Y-55767D01*
X91535Y-55747D01*
X91553Y-55721D01*
X91575Y-55689D01*
X91576Y-55686D01*
X91598Y-55655D01*
X91615Y-55628D01*
X91627Y-55609D01*
X91631Y-55601D01*
X91631Y-55600D01*
X91624Y-55591D01*
X91608Y-55573D01*
X91585Y-55549D01*
X91557Y-55521D01*
X91548Y-55513D01*
X91518Y-55483D01*
X91497Y-55463D01*
X91483Y-55453D01*
X91477Y-55450D01*
X91477Y-55451D01*
X91467Y-55456D01*
X91447Y-55469D01*
X91420Y-55488D01*
X91388Y-55509D01*
X91386Y-55511D01*
X91355Y-55532D01*
X91329Y-55550D01*
X91310Y-55562D01*
X91302Y-55567D01*
X91300Y-55567D01*
X91288Y-55563D01*
X91265Y-55556D01*
X91238Y-55545D01*
X91209Y-55533D01*
X91182Y-55522D01*
X91162Y-55513D01*
X91153Y-55508D01*
X91153Y-55507D01*
X91149Y-55496D01*
X91144Y-55472D01*
X91137Y-55440D01*
X91130Y-55401D01*
X91129Y-55395D01*
X91122Y-55358D01*
X91116Y-55327D01*
X91111Y-55305D01*
X91109Y-55296D01*
X91104Y-55295D01*
X91085Y-55294D01*
X91057Y-55293D01*
X91023Y-55293D01*
X90988Y-55293D01*
X90954Y-55294D01*
X90924Y-55295D01*
X90903Y-55296D01*
X90894Y-55298D01*
X90893Y-55299D01*
X90890Y-55310D01*
X90885Y-55334D01*
X90878Y-55366D01*
X90871Y-55405D01*
X90870Y-55412D01*
X90863Y-55449D01*
X90856Y-55480D01*
X90852Y-55501D01*
X90849Y-55509D01*
X90846Y-55511D01*
X90831Y-55518D01*
X90806Y-55528D01*
X90774Y-55541D01*
X90702Y-55570D01*
X90614Y-55509D01*
X90606Y-55504D01*
X90574Y-55482D01*
X90548Y-55465D01*
X90530Y-55453D01*
X90522Y-55449D01*
X90522Y-55449D01*
X90513Y-55457D01*
X90495Y-55473D01*
X90471Y-55497D01*
X90444Y-55524D01*
X90423Y-55545D01*
X90399Y-55570D01*
X90383Y-55586D01*
X90375Y-55597D01*
X90372Y-55604D01*
X90373Y-55608D01*
X90378Y-55617D01*
X90391Y-55636D01*
X90409Y-55663D01*
X90431Y-55694D01*
X90449Y-55721D01*
X90468Y-55750D01*
X90480Y-55771D01*
X90485Y-55782D01*
X90484Y-55786D01*
X90477Y-55803D01*
X90467Y-55830D01*
X90454Y-55861D01*
X90423Y-55931D01*
X90377Y-55939D01*
X90349Y-55945D01*
X90310Y-55952D01*
X90273Y-55959D01*
X90215Y-55971D01*
X90213Y-56183D01*
X90222Y-56187D01*
X90231Y-56190D01*
X90252Y-56194D01*
X90283Y-56200D01*
X90319Y-56207D01*
X90350Y-56213D01*
X90381Y-56219D01*
X90403Y-56223D01*
X90413Y-56225D01*
X90416Y-56229D01*
X90424Y-56244D01*
X90435Y-56268D01*
X90447Y-56297D01*
X90459Y-56326D01*
X90470Y-56354D01*
X90478Y-56375D01*
X90481Y-56386D01*
X90477Y-56394D01*
X90465Y-56412D01*
X90448Y-56438D01*
X90427Y-56469D01*
X90405Y-56500D01*
X90388Y-56527D01*
X90375Y-56546D01*
X90370Y-56554D01*
X90373Y-56560D01*
X90385Y-56575D01*
X90408Y-56599D01*
X90443Y-56634D01*
X90449Y-56639D01*
X90476Y-56666D01*
X90500Y-56687D01*
X90516Y-56702D01*
X90523Y-56707D01*
X90523Y-56707D01*
G37*
G54D14*
X82800Y-51750D02*
X82800Y-51500D01*
X82800Y-51500D02*
X89200Y-51500D01*
X89200Y-51500D02*
X89200Y-51750D01*
X82800Y-53250D02*
X82800Y-51750D01*
X82800Y-51750D02*
X89200Y-51750D01*
X89200Y-51750D02*
X89200Y-53250D01*
X89200Y-53250D02*
X82800Y-53250D01*
X89200Y-50250D02*
X89200Y-50500D01*
X89200Y-50500D02*
X82800Y-50500D01*
X82800Y-50500D02*
X82800Y-50250D01*
X89200Y-48750D02*
X89200Y-50250D01*
X89200Y-50250D02*
X82800Y-50250D01*
X82800Y-50250D02*
X82800Y-48750D01*
X82800Y-48750D02*
X89200Y-48750D01*
G54D10*
X87771Y-46000D02*
G75*
G03X87771Y-46000I-1771J0D01*
G74*
G01*
X80271Y-58500D02*
G75*
G03X80271Y-58500I-1771J0D01*
G74*
G01*
X95271Y-58500D02*
G75*
G03X95271Y-58500I-1771J0D01*
G74*
G01*
G54D11*
X89571Y-52657D02*
X89571Y-52799D01*
X89714Y-52814D01*
X89700Y-52799D01*
X89685Y-52771D01*
X89685Y-52699D01*
X89700Y-52671D01*
X89714Y-52657D01*
X89742Y-52642D01*
X89814Y-52642D01*
X89842Y-52657D01*
X89857Y-52671D01*
X89871Y-52699D01*
X89871Y-52771D01*
X89857Y-52799D01*
X89842Y-52814D01*
X89571Y-52542D02*
X89571Y-52357D01*
X89685Y-52457D01*
X89685Y-52414D01*
X89700Y-52385D01*
X89714Y-52371D01*
X89742Y-52357D01*
X89814Y-52357D01*
X89842Y-52371D01*
X89857Y-52385D01*
X89871Y-52414D01*
X89871Y-52499D01*
X89857Y-52528D01*
X89842Y-52542D01*
X89571Y-52171D02*
X89571Y-52142D01*
X89585Y-52114D01*
X89600Y-52099D01*
X89628Y-52085D01*
X89685Y-52071D01*
X89757Y-52071D01*
X89814Y-52085D01*
X89842Y-52099D01*
X89857Y-52114D01*
X89871Y-52142D01*
X89871Y-52171D01*
X89857Y-52199D01*
X89842Y-52214D01*
X89814Y-52228D01*
X89757Y-52242D01*
X89685Y-52242D01*
X89628Y-52228D01*
X89600Y-52214D01*
X89585Y-52199D01*
X89571Y-52171D01*
X89571Y-51885D02*
X89571Y-51857D01*
X89585Y-51828D01*
X89600Y-51814D01*
X89628Y-51799D01*
X89685Y-51785D01*
X89757Y-51785D01*
X89814Y-51799D01*
X89842Y-51814D01*
X89857Y-51828D01*
X89871Y-51857D01*
X89871Y-51885D01*
X89857Y-51914D01*
X89842Y-51928D01*
X89814Y-51942D01*
X89757Y-51957D01*
X89685Y-51957D01*
X89628Y-51942D01*
X89600Y-51928D01*
X89585Y-51914D01*
X89571Y-51885D01*
X89571Y-51600D02*
X89571Y-51571D01*
X89585Y-51542D01*
X89600Y-51528D01*
X89628Y-51514D01*
X89685Y-51500D01*
X89757Y-51500D01*
X89814Y-51514D01*
X89842Y-51528D01*
X89857Y-51542D01*
X89871Y-51571D01*
X89871Y-51600D01*
X89857Y-51628D01*
X89842Y-51642D01*
X89814Y-51657D01*
X89757Y-51671D01*
X89685Y-51671D01*
X89628Y-51657D01*
X89600Y-51642D01*
X89585Y-51628D01*
X89571Y-51600D01*
X89600Y-51385D02*
X89585Y-51371D01*
X89571Y-51342D01*
X89571Y-51271D01*
X89585Y-51242D01*
X89600Y-51228D01*
X89628Y-51214D01*
X89657Y-51214D01*
X89700Y-51228D01*
X89871Y-51400D01*
X89871Y-51214D01*
X89714Y-50985D02*
X89728Y-50942D01*
X89742Y-50928D01*
X89771Y-50914D01*
X89814Y-50914D01*
X89842Y-50928D01*
X89857Y-50942D01*
X89871Y-50971D01*
X89871Y-51085D01*
X89571Y-51085D01*
X89571Y-50985D01*
X89585Y-50957D01*
X89600Y-50942D01*
X89628Y-50928D01*
X89657Y-50928D01*
X89685Y-50942D01*
X89700Y-50957D01*
X89714Y-50985D01*
X89714Y-51085D01*
X89571Y-50728D02*
X89571Y-50700D01*
X89585Y-50671D01*
X89600Y-50657D01*
X89628Y-50642D01*
X89685Y-50628D01*
X89757Y-50628D01*
X89814Y-50642D01*
X89842Y-50657D01*
X89857Y-50671D01*
X89871Y-50700D01*
X89871Y-50728D01*
X89857Y-50757D01*
X89842Y-50771D01*
X89814Y-50785D01*
X89757Y-50800D01*
X89685Y-50800D01*
X89628Y-50785D01*
X89600Y-50771D01*
X89585Y-50757D01*
X89571Y-50728D01*
X89600Y-50514D02*
X89585Y-50500D01*
X89571Y-50471D01*
X89571Y-50400D01*
X89585Y-50371D01*
X89600Y-50357D01*
X89628Y-50342D01*
X89657Y-50342D01*
X89700Y-50357D01*
X89871Y-50528D01*
X89871Y-50342D01*
X89571Y-50071D02*
X89571Y-50214D01*
X89714Y-50228D01*
X89700Y-50214D01*
X89685Y-50185D01*
X89685Y-50114D01*
X89700Y-50085D01*
X89714Y-50071D01*
X89742Y-50057D01*
X89814Y-50057D01*
X89842Y-50071D01*
X89857Y-50085D01*
X89871Y-50114D01*
X89871Y-50185D01*
X89857Y-50214D01*
X89842Y-50228D01*
X89571Y-49871D02*
X89571Y-49842D01*
X89585Y-49814D01*
X89600Y-49800D01*
X89628Y-49785D01*
X89685Y-49771D01*
X89757Y-49771D01*
X89814Y-49785D01*
X89842Y-49800D01*
X89857Y-49814D01*
X89871Y-49842D01*
X89871Y-49871D01*
X89857Y-49900D01*
X89842Y-49914D01*
X89814Y-49928D01*
X89757Y-49942D01*
X89685Y-49942D01*
X89628Y-49928D01*
X89600Y-49914D01*
X89585Y-49900D01*
X89571Y-49871D01*
X89571Y-49585D02*
X89571Y-49557D01*
X89585Y-49528D01*
X89600Y-49514D01*
X89628Y-49500D01*
X89685Y-49485D01*
X89757Y-49485D01*
X89814Y-49500D01*
X89842Y-49514D01*
X89857Y-49528D01*
X89871Y-49557D01*
X89871Y-49585D01*
X89857Y-49614D01*
X89842Y-49628D01*
X89814Y-49642D01*
X89757Y-49657D01*
X89685Y-49657D01*
X89628Y-49642D01*
X89600Y-49628D01*
X89585Y-49614D01*
X89571Y-49585D01*
X89585Y-49200D02*
X89571Y-49228D01*
X89571Y-49271D01*
X89585Y-49314D01*
X89614Y-49342D01*
X89642Y-49357D01*
X89700Y-49371D01*
X89742Y-49371D01*
X89800Y-49357D01*
X89828Y-49342D01*
X89857Y-49314D01*
X89871Y-49271D01*
X89871Y-49242D01*
X89857Y-49200D01*
X89842Y-49185D01*
X89742Y-49185D01*
X89742Y-49242D01*
X82285Y-52857D02*
X82285Y-52714D01*
X82371Y-52885D02*
X82071Y-52785D01*
X82371Y-52685D01*
X82371Y-52457D02*
X82214Y-52457D01*
X82185Y-52471D01*
X82171Y-52500D01*
X82171Y-52557D01*
X82185Y-52585D01*
X82357Y-52457D02*
X82371Y-52485D01*
X82371Y-52557D01*
X82357Y-52585D01*
X82328Y-52600D01*
X82300Y-52600D01*
X82271Y-52585D01*
X82257Y-52557D01*
X82257Y-52485D01*
X82242Y-52457D01*
X82171Y-52342D02*
X82371Y-52271D01*
X82171Y-52200D01*
X82371Y-52085D02*
X82171Y-52085D01*
X82071Y-52085D02*
X82085Y-52100D01*
X82100Y-52085D01*
X82085Y-52071D01*
X82071Y-52085D01*
X82100Y-52085D01*
X82371Y-51814D02*
X82071Y-51814D01*
X82357Y-51814D02*
X82371Y-51842D01*
X82371Y-51900D01*
X82357Y-51928D01*
X82342Y-51942D01*
X82314Y-51957D01*
X82228Y-51957D01*
X82200Y-51942D01*
X82185Y-51928D01*
X82171Y-51900D01*
X82171Y-51842D01*
X82185Y-51814D01*
X82071Y-51485D02*
X82071Y-51314D01*
X82371Y-51400D02*
X82071Y-51400D01*
X82371Y-51214D02*
X82071Y-51214D01*
X82371Y-51085D02*
X82214Y-51085D01*
X82185Y-51100D01*
X82171Y-51128D01*
X82171Y-51171D01*
X82185Y-51200D01*
X82200Y-51214D01*
X82357Y-50828D02*
X82371Y-50857D01*
X82371Y-50914D01*
X82357Y-50942D01*
X82328Y-50957D01*
X82214Y-50957D01*
X82185Y-50942D01*
X82171Y-50914D01*
X82171Y-50857D01*
X82185Y-50828D01*
X82214Y-50814D01*
X82242Y-50814D01*
X82271Y-50957D01*
X82371Y-50685D02*
X82171Y-50685D01*
X82228Y-50685D02*
X82200Y-50671D01*
X82185Y-50657D01*
X82171Y-50628D01*
X82171Y-50600D01*
X82371Y-50500D02*
X82171Y-50500D01*
X82200Y-50500D02*
X82185Y-50485D01*
X82171Y-50457D01*
X82171Y-50414D01*
X82185Y-50385D01*
X82214Y-50371D01*
X82371Y-50371D01*
X82214Y-50371D02*
X82185Y-50357D01*
X82171Y-50328D01*
X82171Y-50285D01*
X82185Y-50257D01*
X82214Y-50242D01*
X82371Y-50242D01*
X82371Y-49971D02*
X82214Y-49971D01*
X82185Y-49985D01*
X82171Y-50014D01*
X82171Y-50071D01*
X82185Y-50100D01*
X82357Y-49971D02*
X82371Y-50000D01*
X82371Y-50071D01*
X82357Y-50100D01*
X82328Y-50114D01*
X82300Y-50114D01*
X82271Y-50100D01*
X82257Y-50071D01*
X82257Y-50000D01*
X82242Y-49971D01*
X82371Y-49785D02*
X82357Y-49814D01*
X82328Y-49828D01*
X82071Y-49828D01*
X82371Y-49628D02*
X82357Y-49657D01*
X82328Y-49671D01*
X82071Y-49671D01*
X82371Y-49471D02*
X82357Y-49500D01*
X82342Y-49514D01*
X82314Y-49528D01*
X82228Y-49528D01*
X82200Y-49514D01*
X82185Y-49500D01*
X82171Y-49471D01*
X82171Y-49428D01*
X82185Y-49400D01*
X82200Y-49385D01*
X82228Y-49371D01*
X82314Y-49371D01*
X82342Y-49385D01*
X82357Y-49400D01*
X82371Y-49428D01*
X82371Y-49471D01*
X82171Y-49271D02*
X82371Y-49199D01*
X82171Y-49128D02*
X82371Y-49199D01*
X82442Y-49228D01*
X82457Y-49242D01*
X82471Y-49271D01*
M02*
